#VRML V2.0 utf8
# Representative dimensioned model in millimetres; not vendor clearance authority.
Transform { scale 1 1 1 children [
Shape { appearance Appearance { material Material { diffuseColor 0.035 0.035 0.04 } } geometry IndexedFaceSet { solid TRUE coord Coordinate { point [ -0.39370078740157477 -0.39370078740157477 0.029527559055118113,0.39370078740157477 -0.39370078740157477 0.029527559055118113,0.39370078740157477 0.39370078740157477 0.029527559055118113,-0.39370078740157477 0.39370078740157477 0.029527559055118113,-0.39370078740157477 -0.39370078740157477 0.3248031496062992,0.39370078740157477 -0.39370078740157477 0.3248031496062992,0.39370078740157477 0.39370078740157477 0.3248031496062992,-0.39370078740157477 0.39370078740157477 0.3248031496062992 ] } coordIndex [ 0 3 2 -1,0 2 1 -1,4 5 6 -1,4 6 7 -1,0 1 5 -1,0 5 4 -1,1 2 6 -1,1 6 5 -1,2 3 7 -1,2 7 6 -1,3 0 4 -1,3 4 7 -1 ] } }
Shape { appearance Appearance { material Material { diffuseColor 0.65 0.67 0.7 } } geometry IndexedFaceSet { solid TRUE coord Coordinate { point [ -0.42125984251968507 -0.39763779527559057 0.017716535433070866,-0.3031496062992126 -0.39763779527559057 0.017716535433070866,-0.3031496062992126 -0.3110236220472441 0.017716535433070866,-0.42125984251968507 -0.3110236220472441 0.017716535433070866,-0.42125984251968507 -0.39763779527559057 0.07677165354330709,-0.3031496062992126 -0.39763779527559057 0.07677165354330709,-0.3031496062992126 -0.3110236220472441 0.07677165354330709,-0.42125984251968507 -0.3110236220472441 0.07677165354330709 ] } coordIndex [ 0 3 2 -1,0 2 1 -1,4 5 6 -1,4 6 7 -1,0 1 5 -1,0 5 4 -1,1 2 6 -1,1 6 5 -1,2 3 7 -1,2 7 6 -1,3 0 4 -1,3 4 7 -1 ] } }
Shape { appearance Appearance { material Material { diffuseColor 0.65 0.67 0.7 } } geometry IndexedFaceSet { solid TRUE coord Coordinate { point [ -0.42125984251968507 -0.22047244094488191 0.017716535433070866,-0.3031496062992126 -0.22047244094488191 0.017716535433070866,-0.3031496062992126 -0.13385826771653545 0.017716535433070866,-0.42125984251968507 -0.13385826771653545 0.017716535433070866,-0.42125984251968507 -0.22047244094488191 0.07677165354330709,-0.3031496062992126 -0.22047244094488191 0.07677165354330709,-0.3031496062992126 -0.13385826771653545 0.07677165354330709,-0.42125984251968507 -0.13385826771653545 0.07677165354330709 ] } coordIndex [ 0 3 2 -1,0 2 1 -1,4 5 6 -1,4 6 7 -1,0 1 5 -1,0 5 4 -1,1 2 6 -1,1 6 5 -1,2 3 7 -1,2 7 6 -1,3 0 4 -1,3 4 7 -1 ] } }
Shape { appearance Appearance { material Material { diffuseColor 0.65 0.67 0.7 } } geometry IndexedFaceSet { solid TRUE coord Coordinate { point [ -0.42125984251968507 -0.04330708661417323 0.017716535433070866,-0.3031496062992126 -0.04330708661417323 0.017716535433070866,-0.3031496062992126 0.04330708661417323 0.017716535433070866,-0.42125984251968507 0.04330708661417323 0.017716535433070866,-0.42125984251968507 -0.04330708661417323 0.07677165354330709,-0.3031496062992126 -0.04330708661417323 0.07677165354330709,-0.3031496062992126 0.04330708661417323 0.07677165354330709,-0.42125984251968507 0.04330708661417323 0.07677165354330709 ] } coordIndex [ 0 3 2 -1,0 2 1 -1,4 5 6 -1,4 6 7 -1,0 1 5 -1,0 5 4 -1,1 2 6 -1,1 6 5 -1,2 3 7 -1,2 7 6 -1,3 0 4 -1,3 4 7 -1 ] } }
Shape { appearance Appearance { material Material { diffuseColor 0.65 0.67 0.7 } } geometry IndexedFaceSet { solid TRUE coord Coordinate { point [ -0.42125984251968507 0.13385826771653547 0.017716535433070866,-0.3031496062992126 0.13385826771653547 0.017716535433070866,-0.3031496062992126 0.22047244094488191 0.017716535433070866,-0.42125984251968507 0.22047244094488191 0.017716535433070866,-0.42125984251968507 0.13385826771653547 0.07677165354330709,-0.3031496062992126 0.13385826771653547 0.07677165354330709,-0.3031496062992126 0.22047244094488191 0.07677165354330709,-0.42125984251968507 0.22047244094488191 0.07677165354330709 ] } coordIndex [ 0 3 2 -1,0 2 1 -1,4 5 6 -1,4 6 7 -1,0 1 5 -1,0 5 4 -1,1 2 6 -1,1 6 5 -1,2 3 7 -1,2 7 6 -1,3 0 4 -1,3 4 7 -1 ] } }
Shape { appearance Appearance { material Material { diffuseColor 0.65 0.67 0.7 } } geometry IndexedFaceSet { solid TRUE coord Coordinate { point [ -0.42125984251968507 0.3110236220472441 0.017716535433070866,-0.3031496062992126 0.3110236220472441 0.017716535433070866,-0.3031496062992126 0.39763779527559057 0.017716535433070866,-0.42125984251968507 0.39763779527559057 0.017716535433070866,-0.42125984251968507 0.3110236220472441 0.07677165354330709,-0.3031496062992126 0.3110236220472441 0.07677165354330709,-0.3031496062992126 0.39763779527559057 0.07677165354330709,-0.42125984251968507 0.39763779527559057 0.07677165354330709 ] } coordIndex [ 0 3 2 -1,0 2 1 -1,4 5 6 -1,4 6 7 -1,0 1 5 -1,0 5 4 -1,1 2 6 -1,1 6 5 -1,2 3 7 -1,2 7 6 -1,3 0 4 -1,3 4 7 -1 ] } }
Shape { appearance Appearance { material Material { diffuseColor 0.65 0.67 0.7 } } geometry IndexedFaceSet { solid TRUE coord Coordinate { point [ 0.3031496062992126 -0.39763779527559057 0.017716535433070866,0.42125984251968507 -0.39763779527559057 0.017716535433070866,0.42125984251968507 -0.3110236220472441 0.017716535433070866,0.3031496062992126 -0.3110236220472441 0.017716535433070866,0.3031496062992126 -0.39763779527559057 0.07677165354330709,0.42125984251968507 -0.39763779527559057 0.07677165354330709,0.42125984251968507 -0.3110236220472441 0.07677165354330709,0.3031496062992126 -0.3110236220472441 0.07677165354330709 ] } coordIndex [ 0 3 2 -1,0 2 1 -1,4 5 6 -1,4 6 7 -1,0 1 5 -1,0 5 4 -1,1 2 6 -1,1 6 5 -1,2 3 7 -1,2 7 6 -1,3 0 4 -1,3 4 7 -1 ] } }
Shape { appearance Appearance { material Material { diffuseColor 0.65 0.67 0.7 } } geometry IndexedFaceSet { solid TRUE coord Coordinate { point [ 0.3031496062992126 -0.22047244094488191 0.017716535433070866,0.42125984251968507 -0.22047244094488191 0.017716535433070866,0.42125984251968507 -0.13385826771653545 0.017716535433070866,0.3031496062992126 -0.13385826771653545 0.017716535433070866,0.3031496062992126 -0.22047244094488191 0.07677165354330709,0.42125984251968507 -0.22047244094488191 0.07677165354330709,0.42125984251968507 -0.13385826771653545 0.07677165354330709,0.3031496062992126 -0.13385826771653545 0.07677165354330709 ] } coordIndex [ 0 3 2 -1,0 2 1 -1,4 5 6 -1,4 6 7 -1,0 1 5 -1,0 5 4 -1,1 2 6 -1,1 6 5 -1,2 3 7 -1,2 7 6 -1,3 0 4 -1,3 4 7 -1 ] } }
Shape { appearance Appearance { material Material { diffuseColor 0.65 0.67 0.7 } } geometry IndexedFaceSet { solid TRUE coord Coordinate { point [ 0.3031496062992126 -0.04330708661417323 0.017716535433070866,0.42125984251968507 -0.04330708661417323 0.017716535433070866,0.42125984251968507 0.04330708661417323 0.017716535433070866,0.3031496062992126 0.04330708661417323 0.017716535433070866,0.3031496062992126 -0.04330708661417323 0.07677165354330709,0.42125984251968507 -0.04330708661417323 0.07677165354330709,0.42125984251968507 0.04330708661417323 0.07677165354330709,0.3031496062992126 0.04330708661417323 0.07677165354330709 ] } coordIndex [ 0 3 2 -1,0 2 1 -1,4 5 6 -1,4 6 7 -1,0 1 5 -1,0 5 4 -1,1 2 6 -1,1 6 5 -1,2 3 7 -1,2 7 6 -1,3 0 4 -1,3 4 7 -1 ] } }
Shape { appearance Appearance { material Material { diffuseColor 0.65 0.67 0.7 } } geometry IndexedFaceSet { solid TRUE coord Coordinate { point [ 0.3031496062992126 0.13385826771653547 0.017716535433070866,0.42125984251968507 0.13385826771653547 0.017716535433070866,0.42125984251968507 0.22047244094488191 0.017716535433070866,0.3031496062992126 0.22047244094488191 0.017716535433070866,0.3031496062992126 0.13385826771653547 0.07677165354330709,0.42125984251968507 0.13385826771653547 0.07677165354330709,0.42125984251968507 0.22047244094488191 0.07677165354330709,0.3031496062992126 0.22047244094488191 0.07677165354330709 ] } coordIndex [ 0 3 2 -1,0 2 1 -1,4 5 6 -1,4 6 7 -1,0 1 5 -1,0 5 4 -1,1 2 6 -1,1 6 5 -1,2 3 7 -1,2 7 6 -1,3 0 4 -1,3 4 7 -1 ] } }
Shape { appearance Appearance { material Material { diffuseColor 0.65 0.67 0.7 } } geometry IndexedFaceSet { solid TRUE coord Coordinate { point [ 0.3031496062992126 0.3110236220472441 0.017716535433070866,0.42125984251968507 0.3110236220472441 0.017716535433070866,0.42125984251968507 0.39763779527559057 0.017716535433070866,0.3031496062992126 0.39763779527559057 0.017716535433070866,0.3031496062992126 0.3110236220472441 0.07677165354330709,0.42125984251968507 0.3110236220472441 0.07677165354330709,0.42125984251968507 0.39763779527559057 0.07677165354330709,0.3031496062992126 0.39763779527559057 0.07677165354330709 ] } coordIndex [ 0 3 2 -1,0 2 1 -1,4 5 6 -1,4 6 7 -1,0 1 5 -1,0 5 4 -1,1 2 6 -1,1 6 5 -1,2 3 7 -1,2 7 6 -1,3 0 4 -1,3 4 7 -1 ] } }
Shape { appearance Appearance { material Material { diffuseColor 0.5 0.5 0.5 } } geometry IndexedFaceSet { solid TRUE coord Coordinate { point [ -0.28937007874015747 0.22244094488188978 0.32716535433070865,-0.22244094488188978 0.22244094488188978 0.32716535433070865,-0.22244094488188978 0.28937007874015747 0.32716535433070865,-0.28937007874015747 0.28937007874015747 0.32716535433070865,-0.28937007874015747 0.22244094488188978 0.3311023622047244,-0.22244094488188978 0.22244094488188978 0.3311023622047244,-0.22244094488188978 0.28937007874015747 0.3311023622047244,-0.28937007874015747 0.28937007874015747 0.3311023622047244 ] } coordIndex [ 0 3 2 -1,0 2 1 -1,4 5 6 -1,4 6 7 -1,0 1 5 -1,0 5 4 -1,1 2 6 -1,1 6 5 -1,2 3 7 -1,2 7 6 -1,3 0 4 -1,3 4 7 -1 ] } }
] }
