#VRML V2.0 utf8
# Representative dimensioned model in millimetres; not vendor clearance authority.
Transform { scale 1 1 1 children [
Shape { appearance Appearance { material Material { diffuseColor 0.65 0.67 0.7 } } geometry IndexedFaceSet { solid TRUE coord Coordinate { point [ -1.7519685039370079 -1.1614173228346456 1.1909448818897637,1.7519685039370079 -1.1614173228346456 1.1909448818897637,1.7519685039370079 1.732283464566929 1.1909448818897637,-1.7519685039370079 1.732283464566929 1.1909448818897637,-1.7519685039370079 -1.1614173228346456 1.2893700787401574,1.7519685039370079 -1.1614173228346456 1.2893700787401574,1.7519685039370079 1.732283464566929 1.2893700787401574,-1.7519685039370079 1.732283464566929 1.2893700787401574 ] } coordIndex [ 0 3 2 -1,0 2 1 -1,4 5 6 -1,4 6 7 -1,0 1 5 -1,0 5 4 -1,1 2 6 -1,1 6 5 -1,2 3 7 -1,2 7 6 -1,3 0 4 -1,3 4 7 -1 ] } }
Shape { appearance Appearance { material Material { diffuseColor 0.65 0.67 0.7 } } geometry IndexedFaceSet { solid TRUE coord Coordinate { point [ -1.7519685039370079 -1.1614173228346456 0.049212598425196846,1.7519685039370079 -1.1614173228346456 0.049212598425196846,1.7519685039370079 1.732283464566929 0.049212598425196846,-1.7519685039370079 1.732283464566929 0.049212598425196846,-1.7519685039370079 -1.1614173228346456 0.14763779527559054,1.7519685039370079 -1.1614173228346456 0.14763779527559054,1.7519685039370079 1.732283464566929 0.14763779527559054,-1.7519685039370079 1.732283464566929 0.14763779527559054 ] } coordIndex [ 0 3 2 -1,0 2 1 -1,4 5 6 -1,4 6 7 -1,0 1 5 -1,0 5 4 -1,1 2 6 -1,1 6 5 -1,2 3 7 -1,2 7 6 -1,3 0 4 -1,3 4 7 -1 ] } }
Shape { appearance Appearance { material Material { diffuseColor 0.65 0.67 0.7 } } geometry IndexedFaceSet { solid TRUE coord Coordinate { point [ -1.761811023622047 -1.1614173228346456 0.09842519685039369,-1.6633858267716535 -1.1614173228346456 0.09842519685039369,-1.6633858267716535 1.732283464566929 0.09842519685039369,-1.761811023622047 1.732283464566929 0.09842519685039369,-1.761811023622047 -1.1614173228346456 1.2401574803149606,-1.6633858267716535 -1.1614173228346456 1.2401574803149606,-1.6633858267716535 1.732283464566929 1.2401574803149606,-1.761811023622047 1.732283464566929 1.2401574803149606 ] } coordIndex [ 0 3 2 -1,0 2 1 -1,4 5 6 -1,4 6 7 -1,0 1 5 -1,0 5 4 -1,1 2 6 -1,1 6 5 -1,2 3 7 -1,2 7 6 -1,3 0 4 -1,3 4 7 -1 ] } }
Shape { appearance Appearance { material Material { diffuseColor 0.65 0.67 0.7 } } geometry IndexedFaceSet { solid TRUE coord Coordinate { point [ 1.6633858267716535 -1.1614173228346456 0.09842519685039369,1.761811023622047 -1.1614173228346456 0.09842519685039369,1.761811023622047 1.732283464566929 0.09842519685039369,1.6633858267716535 1.732283464566929 0.09842519685039369,1.6633858267716535 -1.1614173228346456 1.2401574803149606,1.761811023622047 -1.1614173228346456 1.2401574803149606,1.761811023622047 1.732283464566929 1.2401574803149606,1.6633858267716535 1.732283464566929 1.2401574803149606 ] } coordIndex [ 0 3 2 -1,0 2 1 -1,4 5 6 -1,4 6 7 -1,0 1 5 -1,0 5 4 -1,1 2 6 -1,1 6 5 -1,2 3 7 -1,2 7 6 -1,3 0 4 -1,3 4 7 -1 ] } }
Shape { appearance Appearance { material Material { diffuseColor 0.035 0.035 0.04 } } geometry IndexedFaceSet { solid TRUE coord Coordinate { point [ -1.6338582677165356 0.6102362204724409 0.1574803149606299,1.6338582677165356 0.6102362204724409 0.1574803149606299,1.6338582677165356 1.6732283464566928 0.1574803149606299,-1.6338582677165356 1.6732283464566928 0.1574803149606299,-1.6338582677165356 0.6102362204724409 1.141732283464567,1.6338582677165356 0.6102362204724409 1.141732283464567,1.6338582677165356 1.6732283464566928 1.141732283464567,-1.6338582677165356 1.6732283464566928 1.141732283464567 ] } coordIndex [ 0 3 2 -1,0 2 1 -1,4 5 6 -1,4 6 7 -1,0 1 5 -1,0 5 4 -1,1 2 6 -1,1 6 5 -1,2 3 7 -1,2 7 6 -1,3 0 4 -1,3 4 7 -1 ] } }
Shape { appearance Appearance { material Material { diffuseColor 0.035 0.035 0.04 } } geometry IndexedFaceSet { solid TRUE coord Coordinate { point [ -1.3188976377952757 -1.1417322834645671 0.48228346456692917,1.3188976377952757 -1.1417322834645671 0.48228346456692917,1.3188976377952757 0.5118110236220472 0.48228346456692917,-1.3188976377952757 0.5118110236220472 0.48228346456692917,-1.3188976377952757 -1.1417322834645671 0.7381889763779528,1.3188976377952757 -1.1417322834645671 0.7381889763779528,1.3188976377952757 0.5118110236220472 0.7381889763779528,-1.3188976377952757 0.5118110236220472 0.7381889763779528 ] } coordIndex [ 0 3 2 -1,0 2 1 -1,4 5 6 -1,4 6 7 -1,0 1 5 -1,0 5 4 -1,1 2 6 -1,1 6 5 -1,2 3 7 -1,2 7 6 -1,3 0 4 -1,3 4 7 -1 ] } }
Shape { appearance Appearance { material Material { diffuseColor 0.73 0.57 0.18 } } geometry IndexedFaceSet { solid TRUE coord Coordinate { point [ -1.125984251968504 -1.0039370078740157 0.7362204724409448,-1.0393700787401574 -1.0039370078740157 0.7362204724409448,-1.0393700787401574 -0.059055118110236275 0.7362204724409448,-1.125984251968504 -0.059055118110236275 0.7362204724409448,-1.125984251968504 -1.0039370078740157 0.7598425196850394,-1.0393700787401574 -1.0039370078740157 0.7598425196850394,-1.0393700787401574 -0.059055118110236275 0.7598425196850394,-1.125984251968504 -0.059055118110236275 0.7598425196850394 ] } coordIndex [ 0 3 2 -1,0 2 1 -1,4 5 6 -1,4 6 7 -1,0 1 5 -1,0 5 4 -1,1 2 6 -1,1 6 5 -1,2 3 7 -1,2 7 6 -1,3 0 4 -1,3 4 7 -1 ] } }
Shape { appearance Appearance { material Material { diffuseColor 0.73 0.57 0.18 } } geometry IndexedFaceSet { solid TRUE coord Coordinate { point [ -0.9291338582677164 -1.0039370078740157 0.7362204724409448,-0.8425196850393701 -1.0039370078740157 0.7362204724409448,-0.8425196850393701 -0.059055118110236275 0.7362204724409448,-0.9291338582677164 -0.059055118110236275 0.7362204724409448,-0.9291338582677164 -1.0039370078740157 0.7598425196850394,-0.8425196850393701 -1.0039370078740157 0.7598425196850394,-0.8425196850393701 -0.059055118110236275 0.7598425196850394,-0.9291338582677164 -0.059055118110236275 0.7598425196850394 ] } coordIndex [ 0 3 2 -1,0 2 1 -1,4 5 6 -1,4 6 7 -1,0 1 5 -1,0 5 4 -1,1 2 6 -1,1 6 5 -1,2 3 7 -1,2 7 6 -1,3 0 4 -1,3 4 7 -1 ] } }
Shape { appearance Appearance { material Material { diffuseColor 0.73 0.57 0.18 } } geometry IndexedFaceSet { solid TRUE coord Coordinate { point [ -0.7322834645669292 -1.0039370078740157 0.7362204724409448,-0.6456692913385826 -1.0039370078740157 0.7362204724409448,-0.6456692913385826 -0.059055118110236275 0.7362204724409448,-0.7322834645669292 -0.059055118110236275 0.7362204724409448,-0.7322834645669292 -1.0039370078740157 0.7598425196850394,-0.6456692913385826 -1.0039370078740157 0.7598425196850394,-0.6456692913385826 -0.059055118110236275 0.7598425196850394,-0.7322834645669292 -0.059055118110236275 0.7598425196850394 ] } coordIndex [ 0 3 2 -1,0 2 1 -1,4 5 6 -1,4 6 7 -1,0 1 5 -1,0 5 4 -1,1 2 6 -1,1 6 5 -1,2 3 7 -1,2 7 6 -1,3 0 4 -1,3 4 7 -1 ] } }
Shape { appearance Appearance { material Material { diffuseColor 0.73 0.57 0.18 } } geometry IndexedFaceSet { solid TRUE coord Coordinate { point [ -0.5354330708661418 -1.0039370078740157 0.7362204724409448,-0.44881889763779526 -1.0039370078740157 0.7362204724409448,-0.44881889763779526 -0.059055118110236275 0.7362204724409448,-0.5354330708661418 -0.059055118110236275 0.7362204724409448,-0.5354330708661418 -1.0039370078740157 0.7598425196850394,-0.44881889763779526 -1.0039370078740157 0.7598425196850394,-0.44881889763779526 -0.059055118110236275 0.7598425196850394,-0.5354330708661418 -0.059055118110236275 0.7598425196850394 ] } coordIndex [ 0 3 2 -1,0 2 1 -1,4 5 6 -1,4 6 7 -1,0 1 5 -1,0 5 4 -1,1 2 6 -1,1 6 5 -1,2 3 7 -1,2 7 6 -1,3 0 4 -1,3 4 7 -1 ] } }
Shape { appearance Appearance { material Material { diffuseColor 0.73 0.57 0.18 } } geometry IndexedFaceSet { solid TRUE coord Coordinate { point [ -0.33858267716535434 -1.0039370078740157 0.7362204724409448,-0.25196850393700787 -1.0039370078740157 0.7362204724409448,-0.25196850393700787 -0.059055118110236275 0.7362204724409448,-0.33858267716535434 -0.059055118110236275 0.7362204724409448,-0.33858267716535434 -1.0039370078740157 0.7598425196850394,-0.25196850393700787 -1.0039370078740157 0.7598425196850394,-0.25196850393700787 -0.059055118110236275 0.7598425196850394,-0.33858267716535434 -0.059055118110236275 0.7598425196850394 ] } coordIndex [ 0 3 2 -1,0 2 1 -1,4 5 6 -1,4 6 7 -1,0 1 5 -1,0 5 4 -1,1 2 6 -1,1 6 5 -1,2 3 7 -1,2 7 6 -1,3 0 4 -1,3 4 7 -1 ] } }
Shape { appearance Appearance { material Material { diffuseColor 0.73 0.57 0.18 } } geometry IndexedFaceSet { solid TRUE coord Coordinate { point [ -0.14173228346456693 -1.0039370078740157 0.7362204724409448,-0.05511811023622048 -1.0039370078740157 0.7362204724409448,-0.05511811023622048 -0.059055118110236275 0.7362204724409448,-0.14173228346456693 -0.059055118110236275 0.7362204724409448,-0.14173228346456693 -1.0039370078740157 0.7598425196850394,-0.05511811023622048 -1.0039370078740157 0.7598425196850394,-0.05511811023622048 -0.059055118110236275 0.7598425196850394,-0.14173228346456693 -0.059055118110236275 0.7598425196850394 ] } coordIndex [ 0 3 2 -1,0 2 1 -1,4 5 6 -1,4 6 7 -1,0 1 5 -1,0 5 4 -1,1 2 6 -1,1 6 5 -1,2 3 7 -1,2 7 6 -1,3 0 4 -1,3 4 7 -1 ] } }
Shape { appearance Appearance { material Material { diffuseColor 0.73 0.57 0.18 } } geometry IndexedFaceSet { solid TRUE coord Coordinate { point [ 0.05511811023622048 -1.0039370078740157 0.7362204724409448,0.14173228346456693 -1.0039370078740157 0.7362204724409448,0.14173228346456693 -0.059055118110236275 0.7362204724409448,0.05511811023622048 -0.059055118110236275 0.7362204724409448,0.05511811023622048 -1.0039370078740157 0.7598425196850394,0.14173228346456693 -1.0039370078740157 0.7598425196850394,0.14173228346456693 -0.059055118110236275 0.7598425196850394,0.05511811023622048 -0.059055118110236275 0.7598425196850394 ] } coordIndex [ 0 3 2 -1,0 2 1 -1,4 5 6 -1,4 6 7 -1,0 1 5 -1,0 5 4 -1,1 2 6 -1,1 6 5 -1,2 3 7 -1,2 7 6 -1,3 0 4 -1,3 4 7 -1 ] } }
Shape { appearance Appearance { material Material { diffuseColor 0.73 0.57 0.18 } } geometry IndexedFaceSet { solid TRUE coord Coordinate { point [ 0.25196850393700787 -1.0039370078740157 0.7362204724409448,0.33858267716535434 -1.0039370078740157 0.7362204724409448,0.33858267716535434 -0.059055118110236275 0.7362204724409448,0.25196850393700787 -0.059055118110236275 0.7362204724409448,0.25196850393700787 -1.0039370078740157 0.7598425196850394,0.33858267716535434 -1.0039370078740157 0.7598425196850394,0.33858267716535434 -0.059055118110236275 0.7598425196850394,0.25196850393700787 -0.059055118110236275 0.7598425196850394 ] } coordIndex [ 0 3 2 -1,0 2 1 -1,4 5 6 -1,4 6 7 -1,0 1 5 -1,0 5 4 -1,1 2 6 -1,1 6 5 -1,2 3 7 -1,2 7 6 -1,3 0 4 -1,3 4 7 -1 ] } }
Shape { appearance Appearance { material Material { diffuseColor 0.73 0.57 0.18 } } geometry IndexedFaceSet { solid TRUE coord Coordinate { point [ 0.44881889763779526 -1.0039370078740157 0.7362204724409448,0.5354330708661418 -1.0039370078740157 0.7362204724409448,0.5354330708661418 -0.059055118110236275 0.7362204724409448,0.44881889763779526 -0.059055118110236275 0.7362204724409448,0.44881889763779526 -1.0039370078740157 0.7598425196850394,0.5354330708661418 -1.0039370078740157 0.7598425196850394,0.5354330708661418 -0.059055118110236275 0.7598425196850394,0.44881889763779526 -0.059055118110236275 0.7598425196850394 ] } coordIndex [ 0 3 2 -1,0 2 1 -1,4 5 6 -1,4 6 7 -1,0 1 5 -1,0 5 4 -1,1 2 6 -1,1 6 5 -1,2 3 7 -1,2 7 6 -1,3 0 4 -1,3 4 7 -1 ] } }
Shape { appearance Appearance { material Material { diffuseColor 0.73 0.57 0.18 } } geometry IndexedFaceSet { solid TRUE coord Coordinate { point [ 0.6456692913385826 -1.0039370078740157 0.7362204724409448,0.7322834645669292 -1.0039370078740157 0.7362204724409448,0.7322834645669292 -0.059055118110236275 0.7362204724409448,0.6456692913385826 -0.059055118110236275 0.7362204724409448,0.6456692913385826 -1.0039370078740157 0.7598425196850394,0.7322834645669292 -1.0039370078740157 0.7598425196850394,0.7322834645669292 -0.059055118110236275 0.7598425196850394,0.6456692913385826 -0.059055118110236275 0.7598425196850394 ] } coordIndex [ 0 3 2 -1,0 2 1 -1,4 5 6 -1,4 6 7 -1,0 1 5 -1,0 5 4 -1,1 2 6 -1,1 6 5 -1,2 3 7 -1,2 7 6 -1,3 0 4 -1,3 4 7 -1 ] } }
Shape { appearance Appearance { material Material { diffuseColor 0.73 0.57 0.18 } } geometry IndexedFaceSet { solid TRUE coord Coordinate { point [ 0.8425196850393701 -1.0039370078740157 0.7362204724409448,0.9291338582677164 -1.0039370078740157 0.7362204724409448,0.9291338582677164 -0.059055118110236275 0.7362204724409448,0.8425196850393701 -0.059055118110236275 0.7362204724409448,0.8425196850393701 -1.0039370078740157 0.7598425196850394,0.9291338582677164 -1.0039370078740157 0.7598425196850394,0.9291338582677164 -0.059055118110236275 0.7598425196850394,0.8425196850393701 -0.059055118110236275 0.7598425196850394 ] } coordIndex [ 0 3 2 -1,0 2 1 -1,4 5 6 -1,4 6 7 -1,0 1 5 -1,0 5 4 -1,1 2 6 -1,1 6 5 -1,2 3 7 -1,2 7 6 -1,3 0 4 -1,3 4 7 -1 ] } }
Shape { appearance Appearance { material Material { diffuseColor 0.73 0.57 0.18 } } geometry IndexedFaceSet { solid TRUE coord Coordinate { point [ 1.0393700787401574 -1.0039370078740157 0.7362204724409448,1.125984251968504 -1.0039370078740157 0.7362204724409448,1.125984251968504 -0.059055118110236275 0.7362204724409448,1.0393700787401574 -0.059055118110236275 0.7362204724409448,1.0393700787401574 -1.0039370078740157 0.7598425196850394,1.125984251968504 -1.0039370078740157 0.7598425196850394,1.125984251968504 -0.059055118110236275 0.7598425196850394,1.0393700787401574 -0.059055118110236275 0.7598425196850394 ] } coordIndex [ 0 3 2 -1,0 2 1 -1,4 5 6 -1,4 6 7 -1,0 1 5 -1,0 5 4 -1,1 2 6 -1,1 6 5 -1,2 3 7 -1,2 7 6 -1,3 0 4 -1,3 4 7 -1 ] } }
Shape { appearance Appearance { material Material { diffuseColor 0.65 0.67 0.7 } } geometry IndexedFaceSet { solid TRUE coord Coordinate { point [ -1.7598425196850396 1.0354330708661417 -0.610236220472441,-1.641732283464567 1.0354330708661417 -0.610236220472441,-1.641732283464567 1.4291338582677164 -0.610236220472441,-1.7598425196850396 1.4291338582677164 -0.610236220472441,-1.7598425196850396 1.0354330708661417 0.17716535433070865,-1.641732283464567 1.0354330708661417 0.17716535433070865,-1.641732283464567 1.4291338582677164 0.17716535433070865,-1.7598425196850396 1.4291338582677164 0.17716535433070865 ] } coordIndex [ 0 3 2 -1,0 2 1 -1,4 5 6 -1,4 6 7 -1,0 1 5 -1,0 5 4 -1,1 2 6 -1,1 6 5 -1,2 3 7 -1,2 7 6 -1,3 0 4 -1,3 4 7 -1 ] } }
Shape { appearance Appearance { material Material { diffuseColor 0.65 0.67 0.7 } } geometry IndexedFaceSet { solid TRUE coord Coordinate { point [ 1.641732283464567 1.0354330708661417 -0.610236220472441,1.7598425196850396 1.0354330708661417 -0.610236220472441,1.7598425196850396 1.4291338582677164 -0.610236220472441,1.641732283464567 1.4291338582677164 -0.610236220472441,1.641732283464567 1.0354330708661417 0.17716535433070865,1.7598425196850396 1.0354330708661417 0.17716535433070865,1.7598425196850396 1.4291338582677164 0.17716535433070865,1.641732283464567 1.4291338582677164 0.17716535433070865 ] } coordIndex [ 0 3 2 -1,0 2 1 -1,4 5 6 -1,4 6 7 -1,0 1 5 -1,0 5 4 -1,1 2 6 -1,1 6 5 -1,2 3 7 -1,2 7 6 -1,3 0 4 -1,3 4 7 -1 ] } }
Shape { appearance Appearance { material Material { diffuseColor 0.65 0.67 0.7 } } geometry IndexedFaceSet { solid TRUE coord Coordinate { point [ -1.7598425196850396 -0.610236220472441 -0.610236220472441,-1.641732283464567 -0.610236220472441 -0.610236220472441,-1.641732283464567 -0.21653543307086615 -0.610236220472441,-1.7598425196850396 -0.21653543307086615 -0.610236220472441,-1.7598425196850396 -0.610236220472441 0.17716535433070865,-1.641732283464567 -0.610236220472441 0.17716535433070865,-1.641732283464567 -0.21653543307086615 0.17716535433070865,-1.7598425196850396 -0.21653543307086615 0.17716535433070865 ] } coordIndex [ 0 3 2 -1,0 2 1 -1,4 5 6 -1,4 6 7 -1,0 1 5 -1,0 5 4 -1,1 2 6 -1,1 6 5 -1,2 3 7 -1,2 7 6 -1,3 0 4 -1,3 4 7 -1 ] } }
Shape { appearance Appearance { material Material { diffuseColor 0.65 0.67 0.7 } } geometry IndexedFaceSet { solid TRUE coord Coordinate { point [ 1.641732283464567 -0.610236220472441 -0.610236220472441,1.7598425196850396 -0.610236220472441 -0.610236220472441,1.7598425196850396 -0.21653543307086615 -0.610236220472441,1.641732283464567 -0.21653543307086615 -0.610236220472441,1.641732283464567 -0.610236220472441 0.17716535433070865,1.7598425196850396 -0.610236220472441 0.17716535433070865,1.7598425196850396 -0.21653543307086615 0.17716535433070865,1.641732283464567 -0.21653543307086615 0.17716535433070865 ] } coordIndex [ 0 3 2 -1,0 2 1 -1,4 5 6 -1,4 6 7 -1,0 1 5 -1,0 5 4 -1,1 2 6 -1,1 6 5 -1,2 3 7 -1,2 7 6 -1,3 0 4 -1,3 4 7 -1 ] } }
] }
