#VRML V2.0 utf8
# Representative dimensioned model in millimetres; not vendor clearance authority.
Transform { scale 1 1 1 children [
Shape { appearance Appearance { material Material { diffuseColor 0.035 0.035 0.04 } } geometry IndexedFaceSet { solid TRUE coord Coordinate { point [ -1.7716535433070866 -1.3385826771653542 0.0,1.7716535433070866 -1.3385826771653542 0.0,1.7716535433070866 0.1574803149606299 0.0,-1.7716535433070866 0.1574803149606299 0.0,-1.7716535433070866 -1.3385826771653542 4.330708661417323,1.7716535433070866 -1.3385826771653542 4.330708661417323,1.7716535433070866 0.1574803149606299 4.330708661417323,-1.7716535433070866 0.1574803149606299 4.330708661417323 ] } coordIndex [ 0 3 2 -1,0 2 1 -1,4 5 6 -1,4 6 7 -1,0 1 5 -1,0 5 4 -1,1 2 6 -1,1 6 5 -1,2 3 7 -1,2 7 6 -1,3 0 4 -1,3 4 7 -1 ] } }
Shape { appearance Appearance { material Material { diffuseColor 0.035 0.035 0.04 } } geometry IndexedFaceSet { solid TRUE coord Coordinate { point [ -1.7716535433070866 -5.354330708661417 0.0,1.7716535433070866 -5.354330708661417 0.0,1.7716535433070866 -0.9448818897637796 0.0,-1.7716535433070866 -0.9448818897637796 0.0,-1.7716535433070866 -5.354330708661417 1.3385826771653542,1.7716535433070866 -5.354330708661417 1.3385826771653542,1.7716535433070866 -0.9448818897637796 1.3385826771653542,-1.7716535433070866 -0.9448818897637796 1.3385826771653542 ] } coordIndex [ 0 3 2 -1,0 2 1 -1,4 5 6 -1,4 6 7 -1,0 1 5 -1,0 5 4 -1,1 2 6 -1,1 6 5 -1,2 3 7 -1,2 7 6 -1,3 0 4 -1,3 4 7 -1 ] } }
Shape { appearance Appearance { material Material { diffuseColor 0.035 0.035 0.04 } } geometry IndexedFaceSet { solid TRUE coord Coordinate { point [ 1.7322834645669292 -5.354330708661417 2.559055118110236,1.7239420462038058 -5.354330708661417 2.7288485895472703,1.6989981235331553 -5.354330708661417 2.8970068570358127,1.6576919201660312 -5.354330708661417 3.061910464535289,1.6004212374211266 -5.354330708661417 3.2219713001599977,1.527737623280615 -5.354330708661417 3.3756478905647205,1.4403410606815745 -5.354330708661417 3.521460246175689,1.3390732262976548 -5.354330708661417 3.658004114299228,1.2249093847326022 -5.354330708661417 3.7839645028428386,1.0989489961889922 -5.354330708661417 3.8981283444078905,0.962405128065453 -5.354330708661417 3.99939617879181,0.8165927724544845 -5.354330708661417 4.086792741390851,0.662916182049762 -5.354330708661417 4.159476355531362,0.5028553464250529 -5.354330708661417 4.216747038276268,0.3379517389255767 -5.354330708661417 4.258053241643391,0.1697934714370344 -5.354330708661417 4.282997164314041,1.0607177000488887e-16 -5.354330708661417 4.291338582677166,-0.1697934714370342 -5.354330708661417 4.282997164314042,-0.33795173892557645 -5.354330708661417 4.258053241643391,-0.5028553464250526 -5.354330708661417 4.216747038276268,-0.6629161820497618 -5.354330708661417 4.159476355531362,-0.8165927724544844 -5.354330708661417 4.086792741390852,-0.9624051280654522 -5.354330708661417 3.999396178791811,-1.098948996188992 -5.354330708661417 3.8981283444078914,-1.224909384732602 -5.354330708661417 3.7839645028428386,-1.3390732262976548 -5.354330708661417 3.658004114299228,-1.4403410606815745 -5.354330708661417 3.521460246175689,-1.5277376232806148 -5.354330708661417 3.375647890564721,-1.6004212374211266 -5.354330708661417 3.2219713001599986,-1.6576919201660312 -5.354330708661417 3.061910464535289,-1.6989981235331553 -5.354330708661417 2.8970068570358136,-1.7239420462038055 -5.354330708661417 2.7288485895472707,-1.7322834645669292 -5.354330708661417 2.5590551181102366,-1.7239420462038058 -5.354330708661417 2.389261646673202,-1.6989981235331553 -5.354330708661417 2.2211033791846595,-1.6576919201660312 -5.354330708661417 2.0561997716851836,-1.600421237421127 -5.354330708661417 1.8961389360604746,-1.527737623280615 -5.354330708661417 1.742462345655752,-1.440341060681575 -5.354330708661417 1.596649990044784,-1.339073226297655 -5.354330708661417 1.4601061219212443,-1.2249093847326025 -5.354330708661417 1.334145733377634,-1.098948996188993 -5.354330708661417 1.2199818918125822,-0.9624051280654525 -5.354330708661417 1.1187140574286618,-0.8165927724544845 -5.354330708661417 1.0313174948296213,-0.6629161820497629 -5.354330708661417 0.9586338806891099,-0.502855346425053 -5.354330708661417 0.9013631979442049,-0.3379517389255772 -5.354330708661417 0.8600569945770813,-0.16979347143703388 -5.354330708661417 0.8351130719064304,-3.182153100146666e-16 -5.354330708661417 0.826771653543307,0.16979347143703324 -5.354330708661417 0.8351130719064304,0.3379517389255766 -5.354330708661417 0.860056994577081,0.5028553464250524 -5.354330708661417 0.9013631979442049,0.6629161820497622 -5.354330708661417 0.9586338806891095,0.816592772454484 -5.354330708661417 1.031317494829621,0.9624051280654521 -5.354330708661417 1.1187140574286611,1.0989489961889924 -5.354330708661417 1.2199818918125815,1.2249093847326018 -5.354330708661417 1.3341457333776339,1.339073226297654 -5.354330708661417 1.460106121921243,1.4403410606815745 -5.354330708661417 1.5966499900447837,1.5277376232806148 -5.354330708661417 1.7424623456557513,1.6004212374211262 -5.354330708661417 1.8961389360604732,1.6576919201660312 -5.354330708661417 2.056199771685183,1.6989981235331548 -5.354330708661417 2.221103379184659,1.7239420462038058 -5.354330708661417 2.3892616466732024,1.7322834645669292 -1.3385826771653542 2.559055118110236,1.7239420462038058 -1.3385826771653542 2.7288485895472703,1.6989981235331553 -1.3385826771653542 2.8970068570358127,1.6576919201660312 -1.3385826771653542 3.061910464535289,1.6004212374211266 -1.3385826771653542 3.2219713001599977,1.527737623280615 -1.3385826771653542 3.3756478905647205,1.4403410606815745 -1.3385826771653542 3.521460246175689,1.3390732262976548 -1.3385826771653542 3.658004114299228,1.2249093847326022 -1.3385826771653542 3.7839645028428386,1.0989489961889922 -1.3385826771653542 3.8981283444078905,0.962405128065453 -1.3385826771653542 3.99939617879181,0.8165927724544845 -1.3385826771653542 4.086792741390851,0.662916182049762 -1.3385826771653542 4.159476355531362,0.5028553464250529 -1.3385826771653542 4.216747038276268,0.3379517389255767 -1.3385826771653542 4.258053241643391,0.1697934714370344 -1.3385826771653542 4.282997164314041,1.0607177000488887e-16 -1.3385826771653542 4.291338582677166,-0.1697934714370342 -1.3385826771653542 4.282997164314042,-0.33795173892557645 -1.3385826771653542 4.258053241643391,-0.5028553464250526 -1.3385826771653542 4.216747038276268,-0.6629161820497618 -1.3385826771653542 4.159476355531362,-0.8165927724544844 -1.3385826771653542 4.086792741390852,-0.9624051280654522 -1.3385826771653542 3.999396178791811,-1.098948996188992 -1.3385826771653542 3.8981283444078914,-1.224909384732602 -1.3385826771653542 3.7839645028428386,-1.3390732262976548 -1.3385826771653542 3.658004114299228,-1.4403410606815745 -1.3385826771653542 3.521460246175689,-1.5277376232806148 -1.3385826771653542 3.375647890564721,-1.6004212374211266 -1.3385826771653542 3.2219713001599986,-1.6576919201660312 -1.3385826771653542 3.061910464535289,-1.6989981235331553 -1.3385826771653542 2.8970068570358136,-1.7239420462038055 -1.3385826771653542 2.7288485895472707,-1.7322834645669292 -1.3385826771653542 2.5590551181102366,-1.7239420462038058 -1.3385826771653542 2.389261646673202,-1.6989981235331553 -1.3385826771653542 2.2211033791846595,-1.6576919201660312 -1.3385826771653542 2.0561997716851836,-1.600421237421127 -1.3385826771653542 1.8961389360604746,-1.527737623280615 -1.3385826771653542 1.742462345655752,-1.440341060681575 -1.3385826771653542 1.596649990044784,-1.339073226297655 -1.3385826771653542 1.4601061219212443,-1.2249093847326025 -1.3385826771653542 1.334145733377634,-1.098948996188993 -1.3385826771653542 1.2199818918125822,-0.9624051280654525 -1.3385826771653542 1.1187140574286618,-0.8165927724544845 -1.3385826771653542 1.0313174948296213,-0.6629161820497629 -1.3385826771653542 0.9586338806891099,-0.502855346425053 -1.3385826771653542 0.9013631979442049,-0.3379517389255772 -1.3385826771653542 0.8600569945770813,-0.16979347143703388 -1.3385826771653542 0.8351130719064304,-3.182153100146666e-16 -1.3385826771653542 0.826771653543307,0.16979347143703324 -1.3385826771653542 0.8351130719064304,0.3379517389255766 -1.3385826771653542 0.860056994577081,0.5028553464250524 -1.3385826771653542 0.9013631979442049,0.6629161820497622 -1.3385826771653542 0.9586338806891095,0.816592772454484 -1.3385826771653542 1.031317494829621,0.9624051280654521 -1.3385826771653542 1.1187140574286611,1.0989489961889924 -1.3385826771653542 1.2199818918125815,1.2249093847326018 -1.3385826771653542 1.3341457333776339,1.339073226297654 -1.3385826771653542 1.460106121921243,1.4403410606815745 -1.3385826771653542 1.5966499900447837,1.5277376232806148 -1.3385826771653542 1.7424623456557513,1.6004212374211262 -1.3385826771653542 1.8961389360604732,1.6576919201660312 -1.3385826771653542 2.056199771685183,1.6989981235331548 -1.3385826771653542 2.221103379184659,1.7239420462038058 -1.3385826771653542 2.3892616466732024,1.220472440944882 -5.354330708661417 2.559055118110236,1.2145955325526812 -5.354330708661417 2.6786823366226917,1.197021405216541 -5.354330708661417 2.7971574796259833,1.1679193073897036 -5.354330708661417 2.913339566727887,1.1275695081830666 -5.354330708661417 3.026109700918023,1.0763605982204332 -5.354330708661417 3.134381844157714,1.014785747298382 -5.354330708661417 3.2371132765199873,0.9434379548915294 -5.354330708661417 3.3333146381524807,0.8630043392434241 -5.354330708661417 3.42205945735366,0.7742595200422445 -5.354330708661417 3.5024930730017654,0.6780581584097508 -5.354330708661417 3.5738408654086182,0.5753267260474777 -5.354330708661417 3.6354157163306695,0.4670545828077868 -5.354330708661417 3.6866246262933022,0.3542844486176509 -5.354330708661417 3.72697442549994,0.23810236151574718 -5.354330708661417 3.7560765233267777,0.11962721851245607 -5.354330708661417 3.7736506506629173,7.473238341253534e-17 -5.354330708661417 3.779527559055118,-0.11962721851245592 -5.354330708661417 3.7736506506629173,-0.238102361515747 -5.354330708661417 3.7560765233267777,-0.3542844486176507 -5.354330708661417 3.72697442549994,-0.4670545828077867 -5.354330708661417 3.6866246262933022,-0.5753267260474775 -5.354330708661417 3.6354157163306695,-0.6780581584097504 -5.354330708661417 3.5738408654086182,-0.7742595200422444 -5.354330708661417 3.5024930730017654,-0.863004339243424 -5.354330708661417 3.42205945735366,-0.9434379548915294 -5.354330708661417 3.3333146381524807,-1.0147857472983821 -5.354330708661417 3.2371132765199873,-1.0763605982204332 -5.354330708661417 3.134381844157714,-1.1275695081830666 -5.354330708661417 3.026109700918023,-1.1679193073897036 -5.354330708661417 2.913339566727887,-1.197021405216541 -5.354330708661417 2.7971574796259837,-1.2145955325526812 -5.354330708661417 2.678682336622692,-1.220472440944882 -5.354330708661417 2.559055118110236,-1.2145955325526812 -5.354330708661417 2.4394278995977805,-1.197021405216541 -5.354330708661417 2.320952756594489,-1.1679193073897038 -5.354330708661417 2.2047706694925857,-1.1275695081830666 -5.354330708661417 2.0920005353024496,-1.0763605982204332 -5.354330708661417 1.9837283920627586,-1.0147857472983823 -5.354330708661417 1.8809969597004856,-0.9434379548915296 -5.354330708661417 1.784795598067992,-0.8630043392434243 -5.354330708661417 1.6960507788668124,-0.774259520042245 -5.354330708661417 1.6156171632187069,-0.6780581584097507 -5.354330708661417 1.5442693708118542,-0.5753267260474777 -5.354330708661417 1.482694519889803,-0.4670545828077874 -5.354330708661417 1.43148560992717,-0.354284448617651 -5.354330708661417 1.3911358107205325,-0.23810236151574757 -5.354330708661417 1.3620337128936952,-0.11962721851245567 -5.354330708661417 1.344459585557555,-2.24197150237606e-16 -5.354330708661417 1.3385826771653542,0.11962721851245524 -5.354330708661417 1.344459585557555,0.23810236151574712 -5.354330708661417 1.362033712893695,0.3542844486176505 -5.354330708661417 1.3911358107205323,0.46705458280778706 -5.354330708661417 1.4314856099271698,0.5753267260474774 -5.354330708661417 1.482694519889803,0.6780581584097504 -5.354330708661417 1.5442693708118538,0.7742595200422446 -5.354330708661417 1.6156171632187069,0.863004339243424 -5.354330708661417 1.6960507788668115,0.9434379548915289 -5.354330708661417 1.7847955980679913,1.014785747298382 -5.354330708661417 1.8809969597004854,1.0763605982204332 -5.354330708661417 1.9837283920627584,1.1275695081830661 -5.354330708661417 2.0920005353024487,1.1679193073897036 -5.354330708661417 2.204770669492585,1.1970214052165409 -5.354330708661417 2.3209527565944885,1.2145955325526812 -5.354330708661417 2.4394278995977805,1.220472440944882 -1.3385826771653542 2.559055118110236,1.2145955325526812 -1.3385826771653542 2.6786823366226917,1.197021405216541 -1.3385826771653542 2.7971574796259833,1.1679193073897036 -1.3385826771653542 2.913339566727887,1.1275695081830666 -1.3385826771653542 3.026109700918023,1.0763605982204332 -1.3385826771653542 3.134381844157714,1.014785747298382 -1.3385826771653542 3.2371132765199873,0.9434379548915294 -1.3385826771653542 3.3333146381524807,0.8630043392434241 -1.3385826771653542 3.42205945735366,0.7742595200422445 -1.3385826771653542 3.5024930730017654,0.6780581584097508 -1.3385826771653542 3.5738408654086182,0.5753267260474777 -1.3385826771653542 3.6354157163306695,0.4670545828077868 -1.3385826771653542 3.6866246262933022,0.3542844486176509 -1.3385826771653542 3.72697442549994,0.23810236151574718 -1.3385826771653542 3.7560765233267777,0.11962721851245607 -1.3385826771653542 3.7736506506629173,7.473238341253534e-17 -1.3385826771653542 3.779527559055118,-0.11962721851245592 -1.3385826771653542 3.7736506506629173,-0.238102361515747 -1.3385826771653542 3.7560765233267777,-0.3542844486176507 -1.3385826771653542 3.72697442549994,-0.4670545828077867 -1.3385826771653542 3.6866246262933022,-0.5753267260474775 -1.3385826771653542 3.6354157163306695,-0.6780581584097504 -1.3385826771653542 3.5738408654086182,-0.7742595200422444 -1.3385826771653542 3.5024930730017654,-0.863004339243424 -1.3385826771653542 3.42205945735366,-0.9434379548915294 -1.3385826771653542 3.3333146381524807,-1.0147857472983821 -1.3385826771653542 3.2371132765199873,-1.0763605982204332 -1.3385826771653542 3.134381844157714,-1.1275695081830666 -1.3385826771653542 3.026109700918023,-1.1679193073897036 -1.3385826771653542 2.913339566727887,-1.197021405216541 -1.3385826771653542 2.7971574796259837,-1.2145955325526812 -1.3385826771653542 2.678682336622692,-1.220472440944882 -1.3385826771653542 2.559055118110236,-1.2145955325526812 -1.3385826771653542 2.4394278995977805,-1.197021405216541 -1.3385826771653542 2.320952756594489,-1.1679193073897038 -1.3385826771653542 2.2047706694925857,-1.1275695081830666 -1.3385826771653542 2.0920005353024496,-1.0763605982204332 -1.3385826771653542 1.9837283920627586,-1.0147857472983823 -1.3385826771653542 1.8809969597004856,-0.9434379548915296 -1.3385826771653542 1.784795598067992,-0.8630043392434243 -1.3385826771653542 1.6960507788668124,-0.774259520042245 -1.3385826771653542 1.6156171632187069,-0.6780581584097507 -1.3385826771653542 1.5442693708118542,-0.5753267260474777 -1.3385826771653542 1.482694519889803,-0.4670545828077874 -1.3385826771653542 1.43148560992717,-0.354284448617651 -1.3385826771653542 1.3911358107205325,-0.23810236151574757 -1.3385826771653542 1.3620337128936952,-0.11962721851245567 -1.3385826771653542 1.344459585557555,-2.24197150237606e-16 -1.3385826771653542 1.3385826771653542,0.11962721851245524 -1.3385826771653542 1.344459585557555,0.23810236151574712 -1.3385826771653542 1.362033712893695,0.3542844486176505 -1.3385826771653542 1.3911358107205323,0.46705458280778706 -1.3385826771653542 1.4314856099271698,0.5753267260474774 -1.3385826771653542 1.482694519889803,0.6780581584097504 -1.3385826771653542 1.5442693708118538,0.7742595200422446 -1.3385826771653542 1.6156171632187069,0.863004339243424 -1.3385826771653542 1.6960507788668115,0.9434379548915289 -1.3385826771653542 1.7847955980679913,1.014785747298382 -1.3385826771653542 1.8809969597004854,1.0763605982204332 -1.3385826771653542 1.9837283920627584,1.1275695081830661 -1.3385826771653542 2.0920005353024487,1.1679193073897036 -1.3385826771653542 2.204770669492585,1.1970214052165409 -1.3385826771653542 2.3209527565944885,1.2145955325526812 -1.3385826771653542 2.4394278995977805 ] } coordIndex [ 0 64 65 -1,0 65 1 -1,128 129 193 -1,128 193 192 -1,0 1 129 -1,0 129 128 -1,64 192 193 -1,64 193 65 -1,1 65 66 -1,1 66 2 -1,129 130 194 -1,129 194 193 -1,1 2 130 -1,1 130 129 -1,65 193 194 -1,65 194 66 -1,2 66 67 -1,2 67 3 -1,130 131 195 -1,130 195 194 -1,2 3 131 -1,2 131 130 -1,66 194 195 -1,66 195 67 -1,3 67 68 -1,3 68 4 -1,131 132 196 -1,131 196 195 -1,3 4 132 -1,3 132 131 -1,67 195 196 -1,67 196 68 -1,4 68 69 -1,4 69 5 -1,132 133 197 -1,132 197 196 -1,4 5 133 -1,4 133 132 -1,68 196 197 -1,68 197 69 -1,5 69 70 -1,5 70 6 -1,133 134 198 -1,133 198 197 -1,5 6 134 -1,5 134 133 -1,69 197 198 -1,69 198 70 -1,6 70 71 -1,6 71 7 -1,134 135 199 -1,134 199 198 -1,6 7 135 -1,6 135 134 -1,70 198 199 -1,70 199 71 -1,7 71 72 -1,7 72 8 -1,135 136 200 -1,135 200 199 -1,7 8 136 -1,7 136 135 -1,71 199 200 -1,71 200 72 -1,8 72 73 -1,8 73 9 -1,136 137 201 -1,136 201 200 -1,8 9 137 -1,8 137 136 -1,72 200 201 -1,72 201 73 -1,9 73 74 -1,9 74 10 -1,137 138 202 -1,137 202 201 -1,9 10 138 -1,9 138 137 -1,73 201 202 -1,73 202 74 -1,10 74 75 -1,10 75 11 -1,138 139 203 -1,138 203 202 -1,10 11 139 -1,10 139 138 -1,74 202 203 -1,74 203 75 -1,11 75 76 -1,11 76 12 -1,139 140 204 -1,139 204 203 -1,11 12 140 -1,11 140 139 -1,75 203 204 -1,75 204 76 -1,12 76 77 -1,12 77 13 -1,140 141 205 -1,140 205 204 -1,12 13 141 -1,12 141 140 -1,76 204 205 -1,76 205 77 -1,13 77 78 -1,13 78 14 -1,141 142 206 -1,141 206 205 -1,13 14 142 -1,13 142 141 -1,77 205 206 -1,77 206 78 -1,14 78 79 -1,14 79 15 -1,142 143 207 -1,142 207 206 -1,14 15 143 -1,14 143 142 -1,78 206 207 -1,78 207 79 -1,15 79 80 -1,15 80 16 -1,143 144 208 -1,143 208 207 -1,15 16 144 -1,15 144 143 -1,79 207 208 -1,79 208 80 -1,16 80 81 -1,16 81 17 -1,144 145 209 -1,144 209 208 -1,16 17 145 -1,16 145 144 -1,80 208 209 -1,80 209 81 -1,17 81 82 -1,17 82 18 -1,145 146 210 -1,145 210 209 -1,17 18 146 -1,17 146 145 -1,81 209 210 -1,81 210 82 -1,18 82 83 -1,18 83 19 -1,146 147 211 -1,146 211 210 -1,18 19 147 -1,18 147 146 -1,82 210 211 -1,82 211 83 -1,19 83 84 -1,19 84 20 -1,147 148 212 -1,147 212 211 -1,19 20 148 -1,19 148 147 -1,83 211 212 -1,83 212 84 -1,20 84 85 -1,20 85 21 -1,148 149 213 -1,148 213 212 -1,20 21 149 -1,20 149 148 -1,84 212 213 -1,84 213 85 -1,21 85 86 -1,21 86 22 -1,149 150 214 -1,149 214 213 -1,21 22 150 -1,21 150 149 -1,85 213 214 -1,85 214 86 -1,22 86 87 -1,22 87 23 -1,150 151 215 -1,150 215 214 -1,22 23 151 -1,22 151 150 -1,86 214 215 -1,86 215 87 -1,23 87 88 -1,23 88 24 -1,151 152 216 -1,151 216 215 -1,23 24 152 -1,23 152 151 -1,87 215 216 -1,87 216 88 -1,24 88 89 -1,24 89 25 -1,152 153 217 -1,152 217 216 -1,24 25 153 -1,24 153 152 -1,88 216 217 -1,88 217 89 -1,25 89 90 -1,25 90 26 -1,153 154 218 -1,153 218 217 -1,25 26 154 -1,25 154 153 -1,89 217 218 -1,89 218 90 -1,26 90 91 -1,26 91 27 -1,154 155 219 -1,154 219 218 -1,26 27 155 -1,26 155 154 -1,90 218 219 -1,90 219 91 -1,27 91 92 -1,27 92 28 -1,155 156 220 -1,155 220 219 -1,27 28 156 -1,27 156 155 -1,91 219 220 -1,91 220 92 -1,28 92 93 -1,28 93 29 -1,156 157 221 -1,156 221 220 -1,28 29 157 -1,28 157 156 -1,92 220 221 -1,92 221 93 -1,29 93 94 -1,29 94 30 -1,157 158 222 -1,157 222 221 -1,29 30 158 -1,29 158 157 -1,93 221 222 -1,93 222 94 -1,30 94 95 -1,30 95 31 -1,158 159 223 -1,158 223 222 -1,30 31 159 -1,30 159 158 -1,94 222 223 -1,94 223 95 -1,31 95 96 -1,31 96 32 -1,159 160 224 -1,159 224 223 -1,31 32 160 -1,31 160 159 -1,95 223 224 -1,95 224 96 -1,32 96 97 -1,32 97 33 -1,160 161 225 -1,160 225 224 -1,32 33 161 -1,32 161 160 -1,96 224 225 -1,96 225 97 -1,33 97 98 -1,33 98 34 -1,161 162 226 -1,161 226 225 -1,33 34 162 -1,33 162 161 -1,97 225 226 -1,97 226 98 -1,34 98 99 -1,34 99 35 -1,162 163 227 -1,162 227 226 -1,34 35 163 -1,34 163 162 -1,98 226 227 -1,98 227 99 -1,35 99 100 -1,35 100 36 -1,163 164 228 -1,163 228 227 -1,35 36 164 -1,35 164 163 -1,99 227 228 -1,99 228 100 -1,36 100 101 -1,36 101 37 -1,164 165 229 -1,164 229 228 -1,36 37 165 -1,36 165 164 -1,100 228 229 -1,100 229 101 -1,37 101 102 -1,37 102 38 -1,165 166 230 -1,165 230 229 -1,37 38 166 -1,37 166 165 -1,101 229 230 -1,101 230 102 -1,38 102 103 -1,38 103 39 -1,166 167 231 -1,166 231 230 -1,38 39 167 -1,38 167 166 -1,102 230 231 -1,102 231 103 -1,39 103 104 -1,39 104 40 -1,167 168 232 -1,167 232 231 -1,39 40 168 -1,39 168 167 -1,103 231 232 -1,103 232 104 -1,40 104 105 -1,40 105 41 -1,168 169 233 -1,168 233 232 -1,40 41 169 -1,40 169 168 -1,104 232 233 -1,104 233 105 -1,41 105 106 -1,41 106 42 -1,169 170 234 -1,169 234 233 -1,41 42 170 -1,41 170 169 -1,105 233 234 -1,105 234 106 -1,42 106 107 -1,42 107 43 -1,170 171 235 -1,170 235 234 -1,42 43 171 -1,42 171 170 -1,106 234 235 -1,106 235 107 -1,43 107 108 -1,43 108 44 -1,171 172 236 -1,171 236 235 -1,43 44 172 -1,43 172 171 -1,107 235 236 -1,107 236 108 -1,44 108 109 -1,44 109 45 -1,172 173 237 -1,172 237 236 -1,44 45 173 -1,44 173 172 -1,108 236 237 -1,108 237 109 -1,45 109 110 -1,45 110 46 -1,173 174 238 -1,173 238 237 -1,45 46 174 -1,45 174 173 -1,109 237 238 -1,109 238 110 -1,46 110 111 -1,46 111 47 -1,174 175 239 -1,174 239 238 -1,46 47 175 -1,46 175 174 -1,110 238 239 -1,110 239 111 -1,47 111 112 -1,47 112 48 -1,175 176 240 -1,175 240 239 -1,47 48 176 -1,47 176 175 -1,111 239 240 -1,111 240 112 -1,48 112 113 -1,48 113 49 -1,176 177 241 -1,176 241 240 -1,48 49 177 -1,48 177 176 -1,112 240 241 -1,112 241 113 -1,49 113 114 -1,49 114 50 -1,177 178 242 -1,177 242 241 -1,49 50 178 -1,49 178 177 -1,113 241 242 -1,113 242 114 -1,50 114 115 -1,50 115 51 -1,178 179 243 -1,178 243 242 -1,50 51 179 -1,50 179 178 -1,114 242 243 -1,114 243 115 -1,51 115 116 -1,51 116 52 -1,179 180 244 -1,179 244 243 -1,51 52 180 -1,51 180 179 -1,115 243 244 -1,115 244 116 -1,52 116 117 -1,52 117 53 -1,180 181 245 -1,180 245 244 -1,52 53 181 -1,52 181 180 -1,116 244 245 -1,116 245 117 -1,53 117 118 -1,53 118 54 -1,181 182 246 -1,181 246 245 -1,53 54 182 -1,53 182 181 -1,117 245 246 -1,117 246 118 -1,54 118 119 -1,54 119 55 -1,182 183 247 -1,182 247 246 -1,54 55 183 -1,54 183 182 -1,118 246 247 -1,118 247 119 -1,55 119 120 -1,55 120 56 -1,183 184 248 -1,183 248 247 -1,55 56 184 -1,55 184 183 -1,119 247 248 -1,119 248 120 -1,56 120 121 -1,56 121 57 -1,184 185 249 -1,184 249 248 -1,56 57 185 -1,56 185 184 -1,120 248 249 -1,120 249 121 -1,57 121 122 -1,57 122 58 -1,185 186 250 -1,185 250 249 -1,57 58 186 -1,57 186 185 -1,121 249 250 -1,121 250 122 -1,58 122 123 -1,58 123 59 -1,186 187 251 -1,186 251 250 -1,58 59 187 -1,58 187 186 -1,122 250 251 -1,122 251 123 -1,59 123 124 -1,59 124 60 -1,187 188 252 -1,187 252 251 -1,59 60 188 -1,59 188 187 -1,123 251 252 -1,123 252 124 -1,60 124 125 -1,60 125 61 -1,188 189 253 -1,188 253 252 -1,60 61 189 -1,60 189 188 -1,124 252 253 -1,124 253 125 -1,61 125 126 -1,61 126 62 -1,189 190 254 -1,189 254 253 -1,61 62 190 -1,61 190 189 -1,125 253 254 -1,125 254 126 -1,62 126 127 -1,62 127 63 -1,190 191 255 -1,190 255 254 -1,62 63 191 -1,62 191 190 -1,126 254 255 -1,126 255 127 -1,63 127 64 -1,63 64 0 -1,191 128 192 -1,191 192 255 -1,63 0 128 -1,63 128 191 -1,127 255 192 -1,127 192 64 -1 ] } }
Shape { appearance Appearance { material Material { diffuseColor 0.65 0.67 0.7 } } geometry IndexedFaceSet { solid TRUE coord Coordinate { point [ 1.2283464566929134 -5.354330708661417 2.559055118110236,1.2224316327626987 -5.354330708661417 2.679454125129224,1.2047441239598737 -5.354330708661417 2.798693623893827,1.1754542706631856 -5.354330708661417 2.915625272848001,1.1348441501713442 -5.354330708661417 3.0291229562909763,1.0833048601444362 -5.354330708661417 3.1380936294870523,1.0213327521196618 -5.354330708661417 3.241487845283921,0.9495246513747005 -5.354330708661417 3.3383098608624304,0.8685721091740269 -5.354330708661417 3.427627227284263,0.7792547427521945 -5.354330708661417 3.5085797694849368,0.6824327271736847 -5.354330708661417 3.580387870229898,0.5790385113768163 -5.354330708661417 3.6423599782546723,0.47006783818074027 -5.354330708661417 3.6938992682815806,0.35657015473776477 -5.354330708661417 3.734509388773422,0.2396385057835907 -5.354330708661417 3.76379924207011,0.12039900701898802 -5.354330708661417 3.781486750872935,7.521452782164846e-17 -5.354330708661417 3.78740157480315,-0.12039900701898787 -5.354330708661417 3.781486750872935,-0.23963850578359053 -5.354330708661417 3.76379924207011,-0.35657015473776454 -5.354330708661417 3.734509388773422,-0.4700678381807401 -5.354330708661417 3.6938992682815806,-0.5790385113768161 -5.354330708661417 3.6423599782546723,-0.6824327271736843 -5.354330708661417 3.580387870229898,-0.7792547427521943 -5.354330708661417 3.5085797694849368,-0.8685721091740267 -5.354330708661417 3.427627227284263,-0.9495246513747005 -5.354330708661417 3.3383098608624304,-1.021332752119662 -5.354330708661417 3.241487845283921,-1.083304860144436 -5.354330708661417 3.1380936294870527,-1.1348441501713442 -5.354330708661417 3.0291229562909767,-1.1754542706631856 -5.354330708661417 2.915625272848001,-1.2047441239598737 -5.354330708661417 2.7986936238938274,-1.2224316327626985 -5.354330708661417 2.6794541251292245,-1.2283464566929134 -5.354330708661417 2.559055118110236,-1.2224316327626987 -5.354330708661417 2.438656111091248,-1.2047441239598737 -5.354330708661417 2.3194166123266453,-1.1754542706631859 -5.354330708661417 2.2024849633724717,-1.1348441501713444 -5.354330708661417 2.088987279929496,-1.0833048601444362 -5.354330708661417 1.9800166067334202,-1.0213327521196622 -5.354330708661417 1.8766223909365518,-0.9495246513747008 -5.354330708661417 1.7798003753580418,-0.8685721091740272 -5.354330708661417 1.6904830089362095,-0.779254742752195 -5.354330708661417 1.609530466735536,-0.6824327271736846 -5.354330708661417 1.5377223659905743,-0.5790385113768163 -5.354330708661417 1.4757502579658002,-0.4700678381807409 -5.354330708661417 1.4242109679388921,-0.35657015473776493 -5.354330708661417 1.3836008474470505,-0.2396385057835911 -5.354330708661417 1.3543109941503626,-0.12039900701898763 -5.354330708661417 1.3366234853475376,-2.256435834649454e-16 -5.354330708661417 1.3307086614173227,0.1203990070189872 -5.354330708661417 1.3366234853475376,0.23963850578359067 -5.354330708661417 1.3543109941503624,0.35657015473776443 -5.354330708661417 1.3836008474470503,0.47006783818074044 -5.354330708661417 1.4242109679388921,0.579038511376816 -5.354330708661417 1.4757502579658,0.6824327271736842 -5.354330708661417 1.537722365990574,0.7792547427521946 -5.354330708661417 1.6095304667355357,0.8685721091740267 -5.354330708661417 1.690483008936209,0.9495246513747 -5.354330708661417 1.7798003753580411,1.0213327521196618 -5.354330708661417 1.8766223909365516,1.083304860144436 -5.354330708661417 1.9800166067334197,1.1348441501713442 -5.354330708661417 2.088987279929495,1.1754542706631856 -5.354330708661417 2.2024849633724712,1.2047441239598735 -5.354330708661417 2.3194166123266453,1.2224316327626987 -5.354330708661417 2.438656111091248,1.2283464566929134 -5.255905511811023 2.559055118110236,1.2224316327626987 -5.255905511811023 2.679454125129224,1.2047441239598737 -5.255905511811023 2.798693623893827,1.1754542706631856 -5.255905511811023 2.915625272848001,1.1348441501713442 -5.255905511811023 3.0291229562909763,1.0833048601444362 -5.255905511811023 3.1380936294870523,1.0213327521196618 -5.255905511811023 3.241487845283921,0.9495246513747005 -5.255905511811023 3.3383098608624304,0.8685721091740269 -5.255905511811023 3.427627227284263,0.7792547427521945 -5.255905511811023 3.5085797694849368,0.6824327271736847 -5.255905511811023 3.580387870229898,0.5790385113768163 -5.255905511811023 3.6423599782546723,0.47006783818074027 -5.255905511811023 3.6938992682815806,0.35657015473776477 -5.255905511811023 3.734509388773422,0.2396385057835907 -5.255905511811023 3.76379924207011,0.12039900701898802 -5.255905511811023 3.781486750872935,7.521452782164846e-17 -5.255905511811023 3.78740157480315,-0.12039900701898787 -5.255905511811023 3.781486750872935,-0.23963850578359053 -5.255905511811023 3.76379924207011,-0.35657015473776454 -5.255905511811023 3.734509388773422,-0.4700678381807401 -5.255905511811023 3.6938992682815806,-0.5790385113768161 -5.255905511811023 3.6423599782546723,-0.6824327271736843 -5.255905511811023 3.580387870229898,-0.7792547427521943 -5.255905511811023 3.5085797694849368,-0.8685721091740267 -5.255905511811023 3.427627227284263,-0.9495246513747005 -5.255905511811023 3.3383098608624304,-1.021332752119662 -5.255905511811023 3.241487845283921,-1.083304860144436 -5.255905511811023 3.1380936294870527,-1.1348441501713442 -5.255905511811023 3.0291229562909767,-1.1754542706631856 -5.255905511811023 2.915625272848001,-1.2047441239598737 -5.255905511811023 2.7986936238938274,-1.2224316327626985 -5.255905511811023 2.6794541251292245,-1.2283464566929134 -5.255905511811023 2.559055118110236,-1.2224316327626987 -5.255905511811023 2.438656111091248,-1.2047441239598737 -5.255905511811023 2.3194166123266453,-1.1754542706631859 -5.255905511811023 2.2024849633724717,-1.1348441501713444 -5.255905511811023 2.088987279929496,-1.0833048601444362 -5.255905511811023 1.9800166067334202,-1.0213327521196622 -5.255905511811023 1.8766223909365518,-0.9495246513747008 -5.255905511811023 1.7798003753580418,-0.8685721091740272 -5.255905511811023 1.6904830089362095,-0.779254742752195 -5.255905511811023 1.609530466735536,-0.6824327271736846 -5.255905511811023 1.5377223659905743,-0.5790385113768163 -5.255905511811023 1.4757502579658002,-0.4700678381807409 -5.255905511811023 1.4242109679388921,-0.35657015473776493 -5.255905511811023 1.3836008474470505,-0.2396385057835911 -5.255905511811023 1.3543109941503626,-0.12039900701898763 -5.255905511811023 1.3366234853475376,-2.256435834649454e-16 -5.255905511811023 1.3307086614173227,0.1203990070189872 -5.255905511811023 1.3366234853475376,0.23963850578359067 -5.255905511811023 1.3543109941503624,0.35657015473776443 -5.255905511811023 1.3836008474470503,0.47006783818074044 -5.255905511811023 1.4242109679388921,0.579038511376816 -5.255905511811023 1.4757502579658,0.6824327271736842 -5.255905511811023 1.537722365990574,0.7792547427521946 -5.255905511811023 1.6095304667355357,0.8685721091740267 -5.255905511811023 1.690483008936209,0.9495246513747 -5.255905511811023 1.7798003753580411,1.0213327521196618 -5.255905511811023 1.8766223909365516,1.083304860144436 -5.255905511811023 1.9800166067334197,1.1348441501713442 -5.255905511811023 2.088987279929495,1.1754542706631856 -5.255905511811023 2.2024849633724712,1.2047441239598735 -5.255905511811023 2.3194166123266453,1.2224316327626987 -5.255905511811023 2.438656111091248,1.141732283464567 -5.354330708661417 2.559055118110236,1.1362345304525083 -5.354330708661417 2.6709644515573725,1.1197942177832159 -5.354330708661417 2.781796036947548,1.092569674654884 -5.354330708661417 2.8904825055267485,1.0548230883002878 -5.354330708661417 2.9959771471884884,1.0069179789804052 -5.354330708661417 3.097263990864328,0.949315699085583 -5.354330708661417 3.193367588880648,0.8825709900598179 -5.354330708661417 3.283362411052981,0.8073266399373967 -5.354330708661417 3.3663817580476327,0.7243072929427449 -5.354330708661417 3.4416261081700537,0.634312470770412 -5.354330708661417 3.5083708171958192,0.5382088727540919 -5.354330708661417 3.5659730970906414,0.43692202907825217 -5.354330708661417 3.6138782064105244,0.3314273874165121 -5.354330708661417 3.6516247927651206,0.22274091883731184 -5.354330708661417 3.6788493358934518,0.1119093334471363 -5.354330708661417 3.6952896485627447,6.991093932140402e-17 -5.354330708661417 3.7007874015748032,-0.11190933344713618 -5.354330708661417 3.6952896485627447,-0.2227409188373117 -5.354330708661417 3.6788493358934518,-0.3314273874165119 -5.354330708661417 3.6516247927651206,-0.436922029078252 -5.354330708661417 3.6138782064105244,-0.5382088727540919 -5.354330708661417 3.5659730970906414,-0.6343124707704116 -5.354330708661417 3.5083708171958192,-0.7243072929427447 -5.354330708661417 3.4416261081700537,-0.8073266399373967 -5.354330708661417 3.3663817580476327,-0.8825709900598179 -5.354330708661417 3.283362411052981,-0.9493156990855832 -5.354330708661417 3.193367588880648,-1.006917978980405 -5.354330708661417 3.0972639908643282,-1.0548230883002878 -5.354330708661417 2.9959771471884884,-1.092569674654884 -5.354330708661417 2.8904825055267485,-1.1197942177832159 -5.354330708661417 2.781796036947548,-1.136234530452508 -5.354330708661417 2.670964451557373,-1.141732283464567 -5.354330708661417 2.559055118110236,-1.1362345304525083 -5.354330708661417 2.4471457846631,-1.1197942177832159 -5.354330708661417 2.336314199272924,-1.092569674654884 -5.354330708661417 2.227627730693724,-1.054823088300288 -5.354330708661417 2.1221330890319843,-1.0069179789804052 -5.354330708661417 2.0208462453561444,-0.9493156990855833 -5.354330708661417 1.9247426473398244,-0.8825709900598179 -5.354330708661417 1.8347478251674916,-0.807326639937397 -5.354330708661417 1.7517284781728397,-0.7243072929427453 -5.354330708661417 1.6764841280504188,-0.634312470770412 -5.354330708661417 1.6097394190246532,-0.538208872754092 -5.354330708661417 1.552137139129831,-0.4369220290782527 -5.354330708661417 1.5042320298099485,-0.33142738741651223 -5.354330708661417 1.466485443455352,-0.22274091883731223 -5.354330708661417 1.4392609003270205,-0.11190933344713595 -5.354330708661417 1.4228205876577278,-2.0973281796421205e-16 -5.354330708661417 1.4173228346456692,0.11190933344713554 -5.354330708661417 1.4228205876577278,0.22274091883731184 -5.354330708661417 1.4392609003270205,0.3314273874165118 -5.354330708661417 1.466485443455352,0.43692202907825234 -5.354330708661417 1.5042320298099483,0.5382088727540917 -5.354330708661417 1.5521371391298309,0.6343124707704115 -5.354330708661417 1.6097394190246528,0.7243072929427449 -5.354330708661417 1.6764841280504186,0.8073266399373966 -5.354330708661417 1.7517284781728393,0.8825709900598173 -5.354330708661417 1.834747825167491,0.949315699085583 -5.354330708661417 1.9247426473398244,1.006917978980405 -5.354330708661417 2.020846245356144,1.0548230883002878 -5.354330708661417 2.1221330890319834,1.092569674654884 -5.354330708661417 2.227627730693724,1.1197942177832156 -5.354330708661417 2.3363141992729237,1.1362345304525083 -5.354330708661417 2.4471457846631,1.141732283464567 -5.255905511811023 2.559055118110236,1.1362345304525083 -5.255905511811023 2.6709644515573725,1.1197942177832159 -5.255905511811023 2.781796036947548,1.092569674654884 -5.255905511811023 2.8904825055267485,1.0548230883002878 -5.255905511811023 2.9959771471884884,1.0069179789804052 -5.255905511811023 3.097263990864328,0.949315699085583 -5.255905511811023 3.193367588880648,0.8825709900598179 -5.255905511811023 3.283362411052981,0.8073266399373967 -5.255905511811023 3.3663817580476327,0.7243072929427449 -5.255905511811023 3.4416261081700537,0.634312470770412 -5.255905511811023 3.5083708171958192,0.5382088727540919 -5.255905511811023 3.5659730970906414,0.43692202907825217 -5.255905511811023 3.6138782064105244,0.3314273874165121 -5.255905511811023 3.6516247927651206,0.22274091883731184 -5.255905511811023 3.6788493358934518,0.1119093334471363 -5.255905511811023 3.6952896485627447,6.991093932140402e-17 -5.255905511811023 3.7007874015748032,-0.11190933344713618 -5.255905511811023 3.6952896485627447,-0.2227409188373117 -5.255905511811023 3.6788493358934518,-0.3314273874165119 -5.255905511811023 3.6516247927651206,-0.436922029078252 -5.255905511811023 3.6138782064105244,-0.5382088727540919 -5.255905511811023 3.5659730970906414,-0.6343124707704116 -5.255905511811023 3.5083708171958192,-0.7243072929427447 -5.255905511811023 3.4416261081700537,-0.8073266399373967 -5.255905511811023 3.3663817580476327,-0.8825709900598179 -5.255905511811023 3.283362411052981,-0.9493156990855832 -5.255905511811023 3.193367588880648,-1.006917978980405 -5.255905511811023 3.0972639908643282,-1.0548230883002878 -5.255905511811023 2.9959771471884884,-1.092569674654884 -5.255905511811023 2.8904825055267485,-1.1197942177832159 -5.255905511811023 2.781796036947548,-1.136234530452508 -5.255905511811023 2.670964451557373,-1.141732283464567 -5.255905511811023 2.559055118110236,-1.1362345304525083 -5.255905511811023 2.4471457846631,-1.1197942177832159 -5.255905511811023 2.336314199272924,-1.092569674654884 -5.255905511811023 2.227627730693724,-1.054823088300288 -5.255905511811023 2.1221330890319843,-1.0069179789804052 -5.255905511811023 2.0208462453561444,-0.9493156990855833 -5.255905511811023 1.9247426473398244,-0.8825709900598179 -5.255905511811023 1.8347478251674916,-0.807326639937397 -5.255905511811023 1.7517284781728397,-0.7243072929427453 -5.255905511811023 1.6764841280504188,-0.634312470770412 -5.255905511811023 1.6097394190246532,-0.538208872754092 -5.255905511811023 1.552137139129831,-0.4369220290782527 -5.255905511811023 1.5042320298099485,-0.33142738741651223 -5.255905511811023 1.466485443455352,-0.22274091883731223 -5.255905511811023 1.4392609003270205,-0.11190933344713595 -5.255905511811023 1.4228205876577278,-2.0973281796421205e-16 -5.255905511811023 1.4173228346456692,0.11190933344713554 -5.255905511811023 1.4228205876577278,0.22274091883731184 -5.255905511811023 1.4392609003270205,0.3314273874165118 -5.255905511811023 1.466485443455352,0.43692202907825234 -5.255905511811023 1.5042320298099483,0.5382088727540917 -5.255905511811023 1.5521371391298309,0.6343124707704115 -5.255905511811023 1.6097394190246528,0.7243072929427449 -5.255905511811023 1.6764841280504186,0.8073266399373966 -5.255905511811023 1.7517284781728393,0.8825709900598173 -5.255905511811023 1.834747825167491,0.949315699085583 -5.255905511811023 1.9247426473398244,1.006917978980405 -5.255905511811023 2.020846245356144,1.0548230883002878 -5.255905511811023 2.1221330890319834,1.092569674654884 -5.255905511811023 2.227627730693724,1.1197942177832156 -5.255905511811023 2.3363141992729237,1.1362345304525083 -5.255905511811023 2.4471457846631 ] } coordIndex [ 0 64 65 -1,0 65 1 -1,128 129 193 -1,128 193 192 -1,0 1 129 -1,0 129 128 -1,64 192 193 -1,64 193 65 -1,1 65 66 -1,1 66 2 -1,129 130 194 -1,129 194 193 -1,1 2 130 -1,1 130 129 -1,65 193 194 -1,65 194 66 -1,2 66 67 -1,2 67 3 -1,130 131 195 -1,130 195 194 -1,2 3 131 -1,2 131 130 -1,66 194 195 -1,66 195 67 -1,3 67 68 -1,3 68 4 -1,131 132 196 -1,131 196 195 -1,3 4 132 -1,3 132 131 -1,67 195 196 -1,67 196 68 -1,4 68 69 -1,4 69 5 -1,132 133 197 -1,132 197 196 -1,4 5 133 -1,4 133 132 -1,68 196 197 -1,68 197 69 -1,5 69 70 -1,5 70 6 -1,133 134 198 -1,133 198 197 -1,5 6 134 -1,5 134 133 -1,69 197 198 -1,69 198 70 -1,6 70 71 -1,6 71 7 -1,134 135 199 -1,134 199 198 -1,6 7 135 -1,6 135 134 -1,70 198 199 -1,70 199 71 -1,7 71 72 -1,7 72 8 -1,135 136 200 -1,135 200 199 -1,7 8 136 -1,7 136 135 -1,71 199 200 -1,71 200 72 -1,8 72 73 -1,8 73 9 -1,136 137 201 -1,136 201 200 -1,8 9 137 -1,8 137 136 -1,72 200 201 -1,72 201 73 -1,9 73 74 -1,9 74 10 -1,137 138 202 -1,137 202 201 -1,9 10 138 -1,9 138 137 -1,73 201 202 -1,73 202 74 -1,10 74 75 -1,10 75 11 -1,138 139 203 -1,138 203 202 -1,10 11 139 -1,10 139 138 -1,74 202 203 -1,74 203 75 -1,11 75 76 -1,11 76 12 -1,139 140 204 -1,139 204 203 -1,11 12 140 -1,11 140 139 -1,75 203 204 -1,75 204 76 -1,12 76 77 -1,12 77 13 -1,140 141 205 -1,140 205 204 -1,12 13 141 -1,12 141 140 -1,76 204 205 -1,76 205 77 -1,13 77 78 -1,13 78 14 -1,141 142 206 -1,141 206 205 -1,13 14 142 -1,13 142 141 -1,77 205 206 -1,77 206 78 -1,14 78 79 -1,14 79 15 -1,142 143 207 -1,142 207 206 -1,14 15 143 -1,14 143 142 -1,78 206 207 -1,78 207 79 -1,15 79 80 -1,15 80 16 -1,143 144 208 -1,143 208 207 -1,15 16 144 -1,15 144 143 -1,79 207 208 -1,79 208 80 -1,16 80 81 -1,16 81 17 -1,144 145 209 -1,144 209 208 -1,16 17 145 -1,16 145 144 -1,80 208 209 -1,80 209 81 -1,17 81 82 -1,17 82 18 -1,145 146 210 -1,145 210 209 -1,17 18 146 -1,17 146 145 -1,81 209 210 -1,81 210 82 -1,18 82 83 -1,18 83 19 -1,146 147 211 -1,146 211 210 -1,18 19 147 -1,18 147 146 -1,82 210 211 -1,82 211 83 -1,19 83 84 -1,19 84 20 -1,147 148 212 -1,147 212 211 -1,19 20 148 -1,19 148 147 -1,83 211 212 -1,83 212 84 -1,20 84 85 -1,20 85 21 -1,148 149 213 -1,148 213 212 -1,20 21 149 -1,20 149 148 -1,84 212 213 -1,84 213 85 -1,21 85 86 -1,21 86 22 -1,149 150 214 -1,149 214 213 -1,21 22 150 -1,21 150 149 -1,85 213 214 -1,85 214 86 -1,22 86 87 -1,22 87 23 -1,150 151 215 -1,150 215 214 -1,22 23 151 -1,22 151 150 -1,86 214 215 -1,86 215 87 -1,23 87 88 -1,23 88 24 -1,151 152 216 -1,151 216 215 -1,23 24 152 -1,23 152 151 -1,87 215 216 -1,87 216 88 -1,24 88 89 -1,24 89 25 -1,152 153 217 -1,152 217 216 -1,24 25 153 -1,24 153 152 -1,88 216 217 -1,88 217 89 -1,25 89 90 -1,25 90 26 -1,153 154 218 -1,153 218 217 -1,25 26 154 -1,25 154 153 -1,89 217 218 -1,89 218 90 -1,26 90 91 -1,26 91 27 -1,154 155 219 -1,154 219 218 -1,26 27 155 -1,26 155 154 -1,90 218 219 -1,90 219 91 -1,27 91 92 -1,27 92 28 -1,155 156 220 -1,155 220 219 -1,27 28 156 -1,27 156 155 -1,91 219 220 -1,91 220 92 -1,28 92 93 -1,28 93 29 -1,156 157 221 -1,156 221 220 -1,28 29 157 -1,28 157 156 -1,92 220 221 -1,92 221 93 -1,29 93 94 -1,29 94 30 -1,157 158 222 -1,157 222 221 -1,29 30 158 -1,29 158 157 -1,93 221 222 -1,93 222 94 -1,30 94 95 -1,30 95 31 -1,158 159 223 -1,158 223 222 -1,30 31 159 -1,30 159 158 -1,94 222 223 -1,94 223 95 -1,31 95 96 -1,31 96 32 -1,159 160 224 -1,159 224 223 -1,31 32 160 -1,31 160 159 -1,95 223 224 -1,95 224 96 -1,32 96 97 -1,32 97 33 -1,160 161 225 -1,160 225 224 -1,32 33 161 -1,32 161 160 -1,96 224 225 -1,96 225 97 -1,33 97 98 -1,33 98 34 -1,161 162 226 -1,161 226 225 -1,33 34 162 -1,33 162 161 -1,97 225 226 -1,97 226 98 -1,34 98 99 -1,34 99 35 -1,162 163 227 -1,162 227 226 -1,34 35 163 -1,34 163 162 -1,98 226 227 -1,98 227 99 -1,35 99 100 -1,35 100 36 -1,163 164 228 -1,163 228 227 -1,35 36 164 -1,35 164 163 -1,99 227 228 -1,99 228 100 -1,36 100 101 -1,36 101 37 -1,164 165 229 -1,164 229 228 -1,36 37 165 -1,36 165 164 -1,100 228 229 -1,100 229 101 -1,37 101 102 -1,37 102 38 -1,165 166 230 -1,165 230 229 -1,37 38 166 -1,37 166 165 -1,101 229 230 -1,101 230 102 -1,38 102 103 -1,38 103 39 -1,166 167 231 -1,166 231 230 -1,38 39 167 -1,38 167 166 -1,102 230 231 -1,102 231 103 -1,39 103 104 -1,39 104 40 -1,167 168 232 -1,167 232 231 -1,39 40 168 -1,39 168 167 -1,103 231 232 -1,103 232 104 -1,40 104 105 -1,40 105 41 -1,168 169 233 -1,168 233 232 -1,40 41 169 -1,40 169 168 -1,104 232 233 -1,104 233 105 -1,41 105 106 -1,41 106 42 -1,169 170 234 -1,169 234 233 -1,41 42 170 -1,41 170 169 -1,105 233 234 -1,105 234 106 -1,42 106 107 -1,42 107 43 -1,170 171 235 -1,170 235 234 -1,42 43 171 -1,42 171 170 -1,106 234 235 -1,106 235 107 -1,43 107 108 -1,43 108 44 -1,171 172 236 -1,171 236 235 -1,43 44 172 -1,43 172 171 -1,107 235 236 -1,107 236 108 -1,44 108 109 -1,44 109 45 -1,172 173 237 -1,172 237 236 -1,44 45 173 -1,44 173 172 -1,108 236 237 -1,108 237 109 -1,45 109 110 -1,45 110 46 -1,173 174 238 -1,173 238 237 -1,45 46 174 -1,45 174 173 -1,109 237 238 -1,109 238 110 -1,46 110 111 -1,46 111 47 -1,174 175 239 -1,174 239 238 -1,46 47 175 -1,46 175 174 -1,110 238 239 -1,110 239 111 -1,47 111 112 -1,47 112 48 -1,175 176 240 -1,175 240 239 -1,47 48 176 -1,47 176 175 -1,111 239 240 -1,111 240 112 -1,48 112 113 -1,48 113 49 -1,176 177 241 -1,176 241 240 -1,48 49 177 -1,48 177 176 -1,112 240 241 -1,112 241 113 -1,49 113 114 -1,49 114 50 -1,177 178 242 -1,177 242 241 -1,49 50 178 -1,49 178 177 -1,113 241 242 -1,113 242 114 -1,50 114 115 -1,50 115 51 -1,178 179 243 -1,178 243 242 -1,50 51 179 -1,50 179 178 -1,114 242 243 -1,114 243 115 -1,51 115 116 -1,51 116 52 -1,179 180 244 -1,179 244 243 -1,51 52 180 -1,51 180 179 -1,115 243 244 -1,115 244 116 -1,52 116 117 -1,52 117 53 -1,180 181 245 -1,180 245 244 -1,52 53 181 -1,52 181 180 -1,116 244 245 -1,116 245 117 -1,53 117 118 -1,53 118 54 -1,181 182 246 -1,181 246 245 -1,53 54 182 -1,53 182 181 -1,117 245 246 -1,117 246 118 -1,54 118 119 -1,54 119 55 -1,182 183 247 -1,182 247 246 -1,54 55 183 -1,54 183 182 -1,118 246 247 -1,118 247 119 -1,55 119 120 -1,55 120 56 -1,183 184 248 -1,183 248 247 -1,55 56 184 -1,55 184 183 -1,119 247 248 -1,119 248 120 -1,56 120 121 -1,56 121 57 -1,184 185 249 -1,184 249 248 -1,56 57 185 -1,56 185 184 -1,120 248 249 -1,120 249 121 -1,57 121 122 -1,57 122 58 -1,185 186 250 -1,185 250 249 -1,57 58 186 -1,57 186 185 -1,121 249 250 -1,121 250 122 -1,58 122 123 -1,58 123 59 -1,186 187 251 -1,186 251 250 -1,58 59 187 -1,58 187 186 -1,122 250 251 -1,122 251 123 -1,59 123 124 -1,59 124 60 -1,187 188 252 -1,187 252 251 -1,59 60 188 -1,59 188 187 -1,123 251 252 -1,123 252 124 -1,60 124 125 -1,60 125 61 -1,188 189 253 -1,188 253 252 -1,60 61 189 -1,60 189 188 -1,124 252 253 -1,124 253 125 -1,61 125 126 -1,61 126 62 -1,189 190 254 -1,189 254 253 -1,61 62 190 -1,61 190 189 -1,125 253 254 -1,125 254 126 -1,62 126 127 -1,62 127 63 -1,190 191 255 -1,190 255 254 -1,62 63 191 -1,62 191 190 -1,126 254 255 -1,126 255 127 -1,63 127 64 -1,63 64 0 -1,191 128 192 -1,191 192 255 -1,63 0 128 -1,63 128 191 -1,127 255 192 -1,127 192 64 -1 ] } }
Shape { appearance Appearance { material Material { diffuseColor 0.65 0.67 0.7 } } geometry IndexedFaceSet { solid TRUE coord Coordinate { point [ 0.39370078740157477 -5.0 2.559055118110236,0.3918050105008649 -5.0 2.597644543436835,0.38613593716662614 -5.0 2.6358623315024126,0.37674816367409797 -5.0 2.67334042411593,0.3637320994138924 -5.0 2.7097178867579093,0.3472130962001398 -5.0 2.7446443845771644,0.3273502410639942 -5.0 2.7777835563069297,0.3043348241585579 -5.0 2.8088162536077346,0.2783884965301368 -5.0 2.837443614640373,0.24976113549749823 -5.0 2.863389942268794,0.21872843819669383 -5.0 2.8864053591742302,0.18558926646692828 -5.0 2.906268214310376,0.15066276864767317 -5.0 2.9227872175241285,0.11428530600569382 -5.0 2.935803281784334,0.07680721339217651 -5.0 2.9451910552768625,0.03858942532659873 -5.0 2.9508601286111014,2.4107220455656558e-17 -5.0 2.952755905511811,-0.038589425326598675 -5.0 2.9508601286111014,-0.07680721339217646 -5.0 2.9451910552768625,-0.11428530600569377 -5.0 2.935803281784334,-0.1506627686476731 -5.0 2.9227872175241285,-0.18558926646692822 -5.0 2.906268214310376,-0.2187284381966937 -5.0 2.8864053591742302,-0.24976113549749818 -5.0 2.863389942268794,-0.2783884965301368 -5.0 2.837443614640373,-0.3043348241585579 -5.0 2.8088162536077346,-0.32735024106399424 -5.0 2.7777835563069297,-0.34721309620013974 -5.0 2.7446443845771644,-0.3637320994138924 -5.0 2.7097178867579093,-0.37674816367409797 -5.0 2.67334042411593,-0.38613593716662614 -5.0 2.635862331502413,-0.39180501050086486 -5.0 2.597644543436835,-0.39370078740157477 -5.0 2.559055118110236,-0.3918050105008649 -5.0 2.5204656927836373,-0.38613593716662614 -5.0 2.4822479047180597,-0.376748163674098 -5.0 2.4447698121045423,-0.36373209941389245 -5.0 2.408392349462563,-0.3472130962001398 -5.0 2.373465851643308,-0.3273502410639943 -5.0 2.3403266799135425,-0.3043348241585579 -5.0 2.309293982612738,-0.27838849653013686 -5.0 2.280666621580099,-0.2497611354974984 -5.0 2.2547202939516784,-0.21872843819669377 -5.0 2.231704877046242,-0.18558926646692828 -5.0 2.2118420219100963,-0.15066276864767336 -5.0 2.195323018696344,-0.11428530600569388 -5.0 2.182306954436138,-0.07680721339217664 -5.0 2.17291918094361,-0.0385894253265986 -5.0 2.1672501076093713,-7.232166136696968e-17 -5.0 2.1653543307086616,0.03858942532659846 -5.0 2.1672501076093713,0.0768072133921765 -5.0 2.17291918094361,0.11428530600569373 -5.0 2.182306954436138,0.15066276864767322 -5.0 2.1953230186963437,0.1855892664669282 -5.0 2.2118420219100963,0.21872843819669363 -5.0 2.231704877046242,0.24976113549749826 -5.0 2.2547202939516784,0.27838849653013675 -5.0 2.280666621580099,0.30433482415855767 -5.0 2.3092939826127377,0.3273502410639942 -5.0 2.3403266799135425,0.3472130962001397 -5.0 2.373465851643308,0.36373209941389234 -5.0 2.408392349462563,0.37674816367409797 -5.0 2.4447698121045423,0.3861359371666261 -5.0 2.4822479047180597,0.3918050105008649 -5.0 2.5204656927836373,0.39370078740157477 -1.3385826771653542 2.559055118110236,0.3918050105008649 -1.3385826771653542 2.597644543436835,0.38613593716662614 -1.3385826771653542 2.6358623315024126,0.37674816367409797 -1.3385826771653542 2.67334042411593,0.3637320994138924 -1.3385826771653542 2.7097178867579093,0.3472130962001398 -1.3385826771653542 2.7446443845771644,0.3273502410639942 -1.3385826771653542 2.7777835563069297,0.3043348241585579 -1.3385826771653542 2.8088162536077346,0.2783884965301368 -1.3385826771653542 2.837443614640373,0.24976113549749823 -1.3385826771653542 2.863389942268794,0.21872843819669383 -1.3385826771653542 2.8864053591742302,0.18558926646692828 -1.3385826771653542 2.906268214310376,0.15066276864767317 -1.3385826771653542 2.9227872175241285,0.11428530600569382 -1.3385826771653542 2.935803281784334,0.07680721339217651 -1.3385826771653542 2.9451910552768625,0.03858942532659873 -1.3385826771653542 2.9508601286111014,2.4107220455656558e-17 -1.3385826771653542 2.952755905511811,-0.038589425326598675 -1.3385826771653542 2.9508601286111014,-0.07680721339217646 -1.3385826771653542 2.9451910552768625,-0.11428530600569377 -1.3385826771653542 2.935803281784334,-0.1506627686476731 -1.3385826771653542 2.9227872175241285,-0.18558926646692822 -1.3385826771653542 2.906268214310376,-0.2187284381966937 -1.3385826771653542 2.8864053591742302,-0.24976113549749818 -1.3385826771653542 2.863389942268794,-0.2783884965301368 -1.3385826771653542 2.837443614640373,-0.3043348241585579 -1.3385826771653542 2.8088162536077346,-0.32735024106399424 -1.3385826771653542 2.7777835563069297,-0.34721309620013974 -1.3385826771653542 2.7446443845771644,-0.3637320994138924 -1.3385826771653542 2.7097178867579093,-0.37674816367409797 -1.3385826771653542 2.67334042411593,-0.38613593716662614 -1.3385826771653542 2.635862331502413,-0.39180501050086486 -1.3385826771653542 2.597644543436835,-0.39370078740157477 -1.3385826771653542 2.559055118110236,-0.3918050105008649 -1.3385826771653542 2.5204656927836373,-0.38613593716662614 -1.3385826771653542 2.4822479047180597,-0.376748163674098 -1.3385826771653542 2.4447698121045423,-0.36373209941389245 -1.3385826771653542 2.408392349462563,-0.3472130962001398 -1.3385826771653542 2.373465851643308,-0.3273502410639943 -1.3385826771653542 2.3403266799135425,-0.3043348241585579 -1.3385826771653542 2.309293982612738,-0.27838849653013686 -1.3385826771653542 2.280666621580099,-0.2497611354974984 -1.3385826771653542 2.2547202939516784,-0.21872843819669377 -1.3385826771653542 2.231704877046242,-0.18558926646692828 -1.3385826771653542 2.2118420219100963,-0.15066276864767336 -1.3385826771653542 2.195323018696344,-0.11428530600569388 -1.3385826771653542 2.182306954436138,-0.07680721339217664 -1.3385826771653542 2.17291918094361,-0.0385894253265986 -1.3385826771653542 2.1672501076093713,-7.232166136696968e-17 -1.3385826771653542 2.1653543307086616,0.03858942532659846 -1.3385826771653542 2.1672501076093713,0.0768072133921765 -1.3385826771653542 2.17291918094361,0.11428530600569373 -1.3385826771653542 2.182306954436138,0.15066276864767322 -1.3385826771653542 2.1953230186963437,0.1855892664669282 -1.3385826771653542 2.2118420219100963,0.21872843819669363 -1.3385826771653542 2.231704877046242,0.24976113549749826 -1.3385826771653542 2.2547202939516784,0.27838849653013675 -1.3385826771653542 2.280666621580099,0.30433482415855767 -1.3385826771653542 2.3092939826127377,0.3273502410639942 -1.3385826771653542 2.3403266799135425,0.3472130962001397 -1.3385826771653542 2.373465851643308,0.36373209941389234 -1.3385826771653542 2.408392349462563,0.37674816367409797 -1.3385826771653542 2.4447698121045423,0.3861359371666261 -1.3385826771653542 2.4822479047180597,0.3918050105008649 -1.3385826771653542 2.5204656927836373,0.0003937007874015748 -5.0 2.559055118110236,0.0003918050105008649 -5.0 2.559093707535563,0.00038613593716662616 -5.0 2.559131925323628,0.000376748163674098 -5.0 2.559169403416242,0.0003637320994138924 -5.0 2.5592057808788837,0.0003472130962001398 -5.0 2.559240707376703,0.0003273502410639942 -5.0 2.559273846548433,0.0003043348241585579 -5.0 2.5593048792457336,0.00027838849653013685 -5.0 2.5593335066067664,0.00024976113549749824 -5.0 2.5593594529343946,0.00021872843819669384 -5.0 2.5593824683513002,0.00018558926646692828 -5.0 2.559402331206436,0.00015066276864767315 -5.0 2.5594188502096498,0.00011428530600569383 -5.0 2.5594318662739104,7.680721339217651e-05 -5.0 2.5594412540474027,3.858942532659873e-05 -5.0 2.559446923120737,2.4107220455656557e-20 -5.0 2.559448818897638,-3.8589425326598674e-05 -5.0 2.559446923120737,-7.680721339217646e-05 -5.0 2.5594412540474027,-0.00011428530600569377 -5.0 2.5594318662739104,-0.00015066276864767313 -5.0 2.5594188502096498,-0.00018558926646692822 -5.0 2.559402331206436,-0.0002187284381966937 -5.0 2.5593824683513002,-0.0002497611354974982 -5.0 2.5593594529343946,-0.0002783884965301368 -5.0 2.5593335066067664,-0.0003043348241585579 -5.0 2.5593048792457336,-0.00032735024106399425 -5.0 2.559273846548433,-0.00034721309620013973 -5.0 2.559240707376703,-0.0003637320994138924 -5.0 2.5592057808788837,-0.000376748163674098 -5.0 2.559169403416242,-0.00038613593716662616 -5.0 2.559131925323628,-0.0003918050105008649 -5.0 2.559093707535563,-0.0003937007874015748 -5.0 2.559055118110236,-0.0003918050105008649 -5.0 2.55901652868491,-0.00038613593716662616 -5.0 2.558978310896844,-0.00037674816367409803 -5.0 2.5589408328042302,-0.00036373209941389245 -5.0 2.5589044553415885,-0.0003472130962001398 -5.0 2.5588695288437693,-0.0003273502410639943 -5.0 2.5588363896720394,-0.0003043348241585579 -5.0 2.5588053569747387,-0.0002783884965301369 -5.0 2.558776729613706,-0.0002497611354974984 -5.0 2.5587507832860776,-0.00021872843819669378 -5.0 2.558727767869172,-0.00018558926646692828 -5.0 2.558707905014036,-0.00015066276864767334 -5.0 2.5586913860108225,-0.00011428530600569387 -5.0 2.558678369946562,-7.680721339217664e-05 -5.0 2.5586689821730695,-3.85894253265986e-05 -5.0 2.5586633130997356,-7.232166136696967e-20 -5.0 2.5586614173228344,3.858942532659846e-05 -5.0 2.5586633130997356,7.68072133921765e-05 -5.0 2.5586689821730695,0.00011428530600569372 -5.0 2.558678369946562,0.00015066276864767324 -5.0 2.5586913860108225,0.00018558926646692817 -5.0 2.558707905014036,0.00021872843819669365 -5.0 2.558727767869172,0.0002497611354974983 -5.0 2.5587507832860776,0.0002783884965301368 -5.0 2.558776729613706,0.0003043348241585577 -5.0 2.5588053569747387,0.0003273502410639942 -5.0 2.5588363896720394,0.00034721309620013973 -5.0 2.5588695288437693,0.00036373209941389234 -5.0 2.5589044553415885,0.000376748163674098 -5.0 2.5589408328042302,0.00038613593716662616 -5.0 2.558978310896844,0.0003918050105008649 -5.0 2.55901652868491,0.0003937007874015748 -1.3385826771653542 2.559055118110236,0.0003918050105008649 -1.3385826771653542 2.559093707535563,0.00038613593716662616 -1.3385826771653542 2.559131925323628,0.000376748163674098 -1.3385826771653542 2.559169403416242,0.0003637320994138924 -1.3385826771653542 2.5592057808788837,0.0003472130962001398 -1.3385826771653542 2.559240707376703,0.0003273502410639942 -1.3385826771653542 2.559273846548433,0.0003043348241585579 -1.3385826771653542 2.5593048792457336,0.00027838849653013685 -1.3385826771653542 2.5593335066067664,0.00024976113549749824 -1.3385826771653542 2.5593594529343946,0.00021872843819669384 -1.3385826771653542 2.5593824683513002,0.00018558926646692828 -1.3385826771653542 2.559402331206436,0.00015066276864767315 -1.3385826771653542 2.5594188502096498,0.00011428530600569383 -1.3385826771653542 2.5594318662739104,7.680721339217651e-05 -1.3385826771653542 2.5594412540474027,3.858942532659873e-05 -1.3385826771653542 2.559446923120737,2.4107220455656557e-20 -1.3385826771653542 2.559448818897638,-3.8589425326598674e-05 -1.3385826771653542 2.559446923120737,-7.680721339217646e-05 -1.3385826771653542 2.5594412540474027,-0.00011428530600569377 -1.3385826771653542 2.5594318662739104,-0.00015066276864767313 -1.3385826771653542 2.5594188502096498,-0.00018558926646692822 -1.3385826771653542 2.559402331206436,-0.0002187284381966937 -1.3385826771653542 2.5593824683513002,-0.0002497611354974982 -1.3385826771653542 2.5593594529343946,-0.0002783884965301368 -1.3385826771653542 2.5593335066067664,-0.0003043348241585579 -1.3385826771653542 2.5593048792457336,-0.00032735024106399425 -1.3385826771653542 2.559273846548433,-0.00034721309620013973 -1.3385826771653542 2.559240707376703,-0.0003637320994138924 -1.3385826771653542 2.5592057808788837,-0.000376748163674098 -1.3385826771653542 2.559169403416242,-0.00038613593716662616 -1.3385826771653542 2.559131925323628,-0.0003918050105008649 -1.3385826771653542 2.559093707535563,-0.0003937007874015748 -1.3385826771653542 2.559055118110236,-0.0003918050105008649 -1.3385826771653542 2.55901652868491,-0.00038613593716662616 -1.3385826771653542 2.558978310896844,-0.00037674816367409803 -1.3385826771653542 2.5589408328042302,-0.00036373209941389245 -1.3385826771653542 2.5589044553415885,-0.0003472130962001398 -1.3385826771653542 2.5588695288437693,-0.0003273502410639943 -1.3385826771653542 2.5588363896720394,-0.0003043348241585579 -1.3385826771653542 2.5588053569747387,-0.0002783884965301369 -1.3385826771653542 2.558776729613706,-0.0002497611354974984 -1.3385826771653542 2.5587507832860776,-0.00021872843819669378 -1.3385826771653542 2.558727767869172,-0.00018558926646692828 -1.3385826771653542 2.558707905014036,-0.00015066276864767334 -1.3385826771653542 2.5586913860108225,-0.00011428530600569387 -1.3385826771653542 2.558678369946562,-7.680721339217664e-05 -1.3385826771653542 2.5586689821730695,-3.85894253265986e-05 -1.3385826771653542 2.5586633130997356,-7.232166136696967e-20 -1.3385826771653542 2.5586614173228344,3.858942532659846e-05 -1.3385826771653542 2.5586633130997356,7.68072133921765e-05 -1.3385826771653542 2.5586689821730695,0.00011428530600569372 -1.3385826771653542 2.558678369946562,0.00015066276864767324 -1.3385826771653542 2.5586913860108225,0.00018558926646692817 -1.3385826771653542 2.558707905014036,0.00021872843819669365 -1.3385826771653542 2.558727767869172,0.0002497611354974983 -1.3385826771653542 2.5587507832860776,0.0002783884965301368 -1.3385826771653542 2.558776729613706,0.0003043348241585577 -1.3385826771653542 2.5588053569747387,0.0003273502410639942 -1.3385826771653542 2.5588363896720394,0.00034721309620013973 -1.3385826771653542 2.5588695288437693,0.00036373209941389234 -1.3385826771653542 2.5589044553415885,0.000376748163674098 -1.3385826771653542 2.5589408328042302,0.00038613593716662616 -1.3385826771653542 2.558978310896844,0.0003918050105008649 -1.3385826771653542 2.55901652868491 ] } coordIndex [ 0 64 65 -1,0 65 1 -1,128 129 193 -1,128 193 192 -1,0 1 129 -1,0 129 128 -1,64 192 193 -1,64 193 65 -1,1 65 66 -1,1 66 2 -1,129 130 194 -1,129 194 193 -1,1 2 130 -1,1 130 129 -1,65 193 194 -1,65 194 66 -1,2 66 67 -1,2 67 3 -1,130 131 195 -1,130 195 194 -1,2 3 131 -1,2 131 130 -1,66 194 195 -1,66 195 67 -1,3 67 68 -1,3 68 4 -1,131 132 196 -1,131 196 195 -1,3 4 132 -1,3 132 131 -1,67 195 196 -1,67 196 68 -1,4 68 69 -1,4 69 5 -1,132 133 197 -1,132 197 196 -1,4 5 133 -1,4 133 132 -1,68 196 197 -1,68 197 69 -1,5 69 70 -1,5 70 6 -1,133 134 198 -1,133 198 197 -1,5 6 134 -1,5 134 133 -1,69 197 198 -1,69 198 70 -1,6 70 71 -1,6 71 7 -1,134 135 199 -1,134 199 198 -1,6 7 135 -1,6 135 134 -1,70 198 199 -1,70 199 71 -1,7 71 72 -1,7 72 8 -1,135 136 200 -1,135 200 199 -1,7 8 136 -1,7 136 135 -1,71 199 200 -1,71 200 72 -1,8 72 73 -1,8 73 9 -1,136 137 201 -1,136 201 200 -1,8 9 137 -1,8 137 136 -1,72 200 201 -1,72 201 73 -1,9 73 74 -1,9 74 10 -1,137 138 202 -1,137 202 201 -1,9 10 138 -1,9 138 137 -1,73 201 202 -1,73 202 74 -1,10 74 75 -1,10 75 11 -1,138 139 203 -1,138 203 202 -1,10 11 139 -1,10 139 138 -1,74 202 203 -1,74 203 75 -1,11 75 76 -1,11 76 12 -1,139 140 204 -1,139 204 203 -1,11 12 140 -1,11 140 139 -1,75 203 204 -1,75 204 76 -1,12 76 77 -1,12 77 13 -1,140 141 205 -1,140 205 204 -1,12 13 141 -1,12 141 140 -1,76 204 205 -1,76 205 77 -1,13 77 78 -1,13 78 14 -1,141 142 206 -1,141 206 205 -1,13 14 142 -1,13 142 141 -1,77 205 206 -1,77 206 78 -1,14 78 79 -1,14 79 15 -1,142 143 207 -1,142 207 206 -1,14 15 143 -1,14 143 142 -1,78 206 207 -1,78 207 79 -1,15 79 80 -1,15 80 16 -1,143 144 208 -1,143 208 207 -1,15 16 144 -1,15 144 143 -1,79 207 208 -1,79 208 80 -1,16 80 81 -1,16 81 17 -1,144 145 209 -1,144 209 208 -1,16 17 145 -1,16 145 144 -1,80 208 209 -1,80 209 81 -1,17 81 82 -1,17 82 18 -1,145 146 210 -1,145 210 209 -1,17 18 146 -1,17 146 145 -1,81 209 210 -1,81 210 82 -1,18 82 83 -1,18 83 19 -1,146 147 211 -1,146 211 210 -1,18 19 147 -1,18 147 146 -1,82 210 211 -1,82 211 83 -1,19 83 84 -1,19 84 20 -1,147 148 212 -1,147 212 211 -1,19 20 148 -1,19 148 147 -1,83 211 212 -1,83 212 84 -1,20 84 85 -1,20 85 21 -1,148 149 213 -1,148 213 212 -1,20 21 149 -1,20 149 148 -1,84 212 213 -1,84 213 85 -1,21 85 86 -1,21 86 22 -1,149 150 214 -1,149 214 213 -1,21 22 150 -1,21 150 149 -1,85 213 214 -1,85 214 86 -1,22 86 87 -1,22 87 23 -1,150 151 215 -1,150 215 214 -1,22 23 151 -1,22 151 150 -1,86 214 215 -1,86 215 87 -1,23 87 88 -1,23 88 24 -1,151 152 216 -1,151 216 215 -1,23 24 152 -1,23 152 151 -1,87 215 216 -1,87 216 88 -1,24 88 89 -1,24 89 25 -1,152 153 217 -1,152 217 216 -1,24 25 153 -1,24 153 152 -1,88 216 217 -1,88 217 89 -1,25 89 90 -1,25 90 26 -1,153 154 218 -1,153 218 217 -1,25 26 154 -1,25 154 153 -1,89 217 218 -1,89 218 90 -1,26 90 91 -1,26 91 27 -1,154 155 219 -1,154 219 218 -1,26 27 155 -1,26 155 154 -1,90 218 219 -1,90 219 91 -1,27 91 92 -1,27 92 28 -1,155 156 220 -1,155 220 219 -1,27 28 156 -1,27 156 155 -1,91 219 220 -1,91 220 92 -1,28 92 93 -1,28 93 29 -1,156 157 221 -1,156 221 220 -1,28 29 157 -1,28 157 156 -1,92 220 221 -1,92 221 93 -1,29 93 94 -1,29 94 30 -1,157 158 222 -1,157 222 221 -1,29 30 158 -1,29 158 157 -1,93 221 222 -1,93 222 94 -1,30 94 95 -1,30 95 31 -1,158 159 223 -1,158 223 222 -1,30 31 159 -1,30 159 158 -1,94 222 223 -1,94 223 95 -1,31 95 96 -1,31 96 32 -1,159 160 224 -1,159 224 223 -1,31 32 160 -1,31 160 159 -1,95 223 224 -1,95 224 96 -1,32 96 97 -1,32 97 33 -1,160 161 225 -1,160 225 224 -1,32 33 161 -1,32 161 160 -1,96 224 225 -1,96 225 97 -1,33 97 98 -1,33 98 34 -1,161 162 226 -1,161 226 225 -1,33 34 162 -1,33 162 161 -1,97 225 226 -1,97 226 98 -1,34 98 99 -1,34 99 35 -1,162 163 227 -1,162 227 226 -1,34 35 163 -1,34 163 162 -1,98 226 227 -1,98 227 99 -1,35 99 100 -1,35 100 36 -1,163 164 228 -1,163 228 227 -1,35 36 164 -1,35 164 163 -1,99 227 228 -1,99 228 100 -1,36 100 101 -1,36 101 37 -1,164 165 229 -1,164 229 228 -1,36 37 165 -1,36 165 164 -1,100 228 229 -1,100 229 101 -1,37 101 102 -1,37 102 38 -1,165 166 230 -1,165 230 229 -1,37 38 166 -1,37 166 165 -1,101 229 230 -1,101 230 102 -1,38 102 103 -1,38 103 39 -1,166 167 231 -1,166 231 230 -1,38 39 167 -1,38 167 166 -1,102 230 231 -1,102 231 103 -1,39 103 104 -1,39 104 40 -1,167 168 232 -1,167 232 231 -1,39 40 168 -1,39 168 167 -1,103 231 232 -1,103 232 104 -1,40 104 105 -1,40 105 41 -1,168 169 233 -1,168 233 232 -1,40 41 169 -1,40 169 168 -1,104 232 233 -1,104 233 105 -1,41 105 106 -1,41 106 42 -1,169 170 234 -1,169 234 233 -1,41 42 170 -1,41 170 169 -1,105 233 234 -1,105 234 106 -1,42 106 107 -1,42 107 43 -1,170 171 235 -1,170 235 234 -1,42 43 171 -1,42 171 170 -1,106 234 235 -1,106 235 107 -1,43 107 108 -1,43 108 44 -1,171 172 236 -1,171 236 235 -1,43 44 172 -1,43 172 171 -1,107 235 236 -1,107 236 108 -1,44 108 109 -1,44 109 45 -1,172 173 237 -1,172 237 236 -1,44 45 173 -1,44 173 172 -1,108 236 237 -1,108 237 109 -1,45 109 110 -1,45 110 46 -1,173 174 238 -1,173 238 237 -1,45 46 174 -1,45 174 173 -1,109 237 238 -1,109 238 110 -1,46 110 111 -1,46 111 47 -1,174 175 239 -1,174 239 238 -1,46 47 175 -1,46 175 174 -1,110 238 239 -1,110 239 111 -1,47 111 112 -1,47 112 48 -1,175 176 240 -1,175 240 239 -1,47 48 176 -1,47 176 175 -1,111 239 240 -1,111 240 112 -1,48 112 113 -1,48 113 49 -1,176 177 241 -1,176 241 240 -1,48 49 177 -1,48 177 176 -1,112 240 241 -1,112 241 113 -1,49 113 114 -1,49 114 50 -1,177 178 242 -1,177 242 241 -1,49 50 178 -1,49 178 177 -1,113 241 242 -1,113 242 114 -1,50 114 115 -1,50 115 51 -1,178 179 243 -1,178 243 242 -1,50 51 179 -1,50 179 178 -1,114 242 243 -1,114 243 115 -1,51 115 116 -1,51 116 52 -1,179 180 244 -1,179 244 243 -1,51 52 180 -1,51 180 179 -1,115 243 244 -1,115 244 116 -1,52 116 117 -1,52 117 53 -1,180 181 245 -1,180 245 244 -1,52 53 181 -1,52 181 180 -1,116 244 245 -1,116 245 117 -1,53 117 118 -1,53 118 54 -1,181 182 246 -1,181 246 245 -1,53 54 182 -1,53 182 181 -1,117 245 246 -1,117 246 118 -1,54 118 119 -1,54 119 55 -1,182 183 247 -1,182 247 246 -1,54 55 183 -1,54 183 182 -1,118 246 247 -1,118 247 119 -1,55 119 120 -1,55 120 56 -1,183 184 248 -1,183 248 247 -1,55 56 184 -1,55 184 183 -1,119 247 248 -1,119 248 120 -1,56 120 121 -1,56 121 57 -1,184 185 249 -1,184 249 248 -1,56 57 185 -1,56 185 184 -1,120 248 249 -1,120 249 121 -1,57 121 122 -1,57 122 58 -1,185 186 250 -1,185 250 249 -1,57 58 186 -1,57 186 185 -1,121 249 250 -1,121 250 122 -1,58 122 123 -1,58 123 59 -1,186 187 251 -1,186 251 250 -1,58 59 187 -1,58 187 186 -1,122 250 251 -1,122 251 123 -1,59 123 124 -1,59 124 60 -1,187 188 252 -1,187 252 251 -1,59 60 188 -1,59 188 187 -1,123 251 252 -1,123 252 124 -1,60 124 125 -1,60 125 61 -1,188 189 253 -1,188 253 252 -1,60 61 189 -1,60 189 188 -1,124 252 253 -1,124 253 125 -1,61 125 126 -1,61 126 62 -1,189 190 254 -1,189 254 253 -1,61 62 190 -1,61 190 189 -1,125 253 254 -1,125 254 126 -1,62 126 127 -1,62 127 63 -1,190 191 255 -1,190 255 254 -1,62 63 191 -1,62 191 190 -1,126 254 255 -1,126 255 127 -1,63 127 64 -1,63 64 0 -1,191 128 192 -1,191 192 255 -1,63 0 128 -1,63 128 191 -1,127 255 192 -1,127 192 64 -1 ] } }
Shape { appearance Appearance { material Material { diffuseColor 0.65 0.67 0.7 } } geometry IndexedFaceSet { solid TRUE coord Coordinate { point [ -0.5905511811023622 -0.08858267716535433 -1.3779527559055118,0.5905511811023622 -0.08858267716535433 -1.3779527559055118,0.5905511811023622 0.08858267716535433 -1.3779527559055118,-0.5905511811023622 0.08858267716535433 -1.3779527559055118,-0.5905511811023622 -0.08858267716535433 0.0,0.5905511811023622 -0.08858267716535433 0.0,0.5905511811023622 0.08858267716535433 0.0,-0.5905511811023622 0.08858267716535433 0.0 ] } coordIndex [ 0 3 2 -1,0 2 1 -1,4 5 6 -1,4 6 7 -1,0 1 5 -1,0 5 4 -1,1 2 6 -1,1 6 5 -1,2 3 7 -1,2 7 6 -1,3 0 4 -1,3 4 7 -1 ] } }
Shape { appearance Appearance { material Material { diffuseColor 0.65 0.67 0.7 } } geometry IndexedFaceSet { solid TRUE coord Coordinate { point [ -0.4921259842519685 -2.411417322834646 -1.3779527559055118,0.4921259842519685 -2.411417322834646 -1.3779527559055118,0.4921259842519685 -2.234251968503937 -1.3779527559055118,-0.4921259842519685 -2.234251968503937 -1.3779527559055118,-0.4921259842519685 -2.411417322834646 0.0,0.4921259842519685 -2.411417322834646 0.0,0.4921259842519685 -2.234251968503937 0.0,-0.4921259842519685 -2.234251968503937 0.0 ] } coordIndex [ 0 3 2 -1,0 2 1 -1,4 5 6 -1,4 6 7 -1,0 1 5 -1,0 5 4 -1,1 2 6 -1,1 6 5 -1,2 3 7 -1,2 7 6 -1,3 0 4 -1,3 4 7 -1 ] } }
Shape { appearance Appearance { material Material { diffuseColor 0.65 0.67 0.7 } } geometry IndexedFaceSet { solid TRUE coord Coordinate { point [ 1.7618110236220474 -1.6732283464566928 -1.3779527559055118,1.9389763779527558 -1.6732283464566928 -1.3779527559055118,1.9389763779527558 -0.6889763779527559 -1.3779527559055118,1.7618110236220474 -0.6889763779527559 -1.3779527559055118,1.7618110236220474 -1.6732283464566928 0.0,1.9389763779527558 -1.6732283464566928 0.0,1.9389763779527558 -0.6889763779527559 0.0,1.7618110236220474 -0.6889763779527559 0.0 ] } coordIndex [ 0 3 2 -1,0 2 1 -1,4 5 6 -1,4 6 7 -1,0 1 5 -1,0 5 4 -1,1 2 6 -1,1 6 5 -1,2 3 7 -1,2 7 6 -1,3 0 4 -1,3 4 7 -1 ] } }
] }
