M48
; DRILL file KiCad 10.0.6 date 2026-09-22T13:59:42
; FORMAT={-:-/ absolute / metric / decimal}
; #@! TF.CreationDate,2026-09-22T13:59:42+02:00
; #@! TF.GenerationSoftware,Kicad,Pcbnew,10.0.6
; #@! TF.FileFunction,Plated,1,2,PTH
FMAT,2
METRIC
; #@! TA.AperFunction,Plated,PTH,ViaDrill
T1C0.300
; #@! TA.AperFunction,Plated,PTH,ComponentDrill
T2C0.300
; #@! TA.AperFunction,Plated,PTH,ComponentDrill
T3C0.600
; #@! TA.AperFunction,Plated,PTH,ComponentDrill
T4C0.800
; #@! TA.AperFunction,Plated,PTH,ComponentDrill
T5C1.000
; #@! TA.AperFunction,Plated,PTH,ComponentDrill
T6C1.020
%
G90
G05
T1
X5.0Y49.0
X5.0Y44.0
X5.0Y39.0
X5.0Y34.0
X5.0Y19.0
X5.0Y14.0
X5.0Y9.0
X8.04Y22.0
X9.04Y22.0
X9.725Y19.063
X10.0Y39.0
X10.0Y9.0
X15.0Y54.0
X15.0Y29.0
X15.0Y9.0
X15.888Y20.789
X17.729Y43.948
X19.2Y20.6
X19.828Y24.914
X20.0Y54.0
X20.0Y49.0
X20.059Y30.175
X21.332Y20.789
X21.733Y41.673
X23.04Y22.0
X23.548Y36.252
X24.04Y22.0
X24.1Y33.341
X25.0Y54.0
X25.0Y49.0
X25.0Y24.0
X25.874Y40.141
X26.042Y38.048
X27.236Y32.698
X27.387Y30.24
X28.274Y33.754
X30.0Y14.0
X31.046Y25.108
X31.134Y27.366
X31.322Y50.572
X31.328Y54.181
X31.45Y52.058
X33.03Y48.727
X33.031Y50.569
X33.363Y32.977
X33.571Y34.254
X35.0Y19.0
X35.544Y20.789
X36.022Y48.943
X36.387Y20.789
X36.638Y50.857
X37.206Y35.859
X38.04Y22.0
X39.04Y22.0
X40.0Y49.0
X40.0Y44.0
X45.0Y44.0
X45.0Y29.0
X45.0Y14.0
X45.325Y19.45
X48.692Y39.296
X49.05Y18.713
X50.0Y49.0
X50.0Y39.0
X50.0Y29.0
X50.0Y19.0
X50.0Y9.0
X50.312Y53.712
X50.446Y50.799
X50.958Y20.789
X51.07Y41.336
X53.04Y22.0
X54.04Y22.0
X55.0Y54.0
X55.0Y49.0
X55.0Y9.0
X58.0Y44.0
X59.0Y41.95
X59.0Y40.382
X59.008Y19.564
X59.956Y36.862
X60.0Y49.0
X60.0Y44.0
X60.0Y34.0
X60.0Y24.0
X60.0Y14.0
X60.0Y9.0
X60.911Y43.04
X61.5Y40.75
X64.1Y39.75
X65.0Y54.0
X65.0Y34.0
X65.0Y29.0
X65.0Y19.0
X65.0Y14.0
X65.0Y9.0
X66.0Y46.0
X66.0Y42.0
X66.0Y40.0
X66.0Y38.0
X68.0Y46.0
X68.0Y42.0
X68.0Y40.0
X68.0Y38.0
T2
X42.86Y49.35
X42.86Y48.25
X43.41Y49.9
X43.41Y48.8
X43.41Y47.7
X43.96Y49.35
X43.96Y48.25
X44.51Y49.9
X44.51Y48.8
X44.51Y47.7
X45.06Y49.35
X45.06Y48.25
T4
X7.0Y38.0
X9.5Y38.0
T5
X6.0Y28.0
X11.0Y28.0
T6
X6.0Y11.0
X8.54Y11.0
X11.08Y11.0
X13.62Y11.0
X21.0Y11.0
X23.54Y11.0
X26.08Y11.0
X28.62Y11.0
X36.0Y11.0
X38.54Y11.0
X41.08Y11.0
X43.62Y11.0
X51.0Y11.0
X53.54Y11.0
X56.08Y11.0
X58.62Y11.0
T3
X63.12Y44.32G85X64.22Y44.32
G05
X63.12Y35.68G85X64.22Y35.68
G05
X67.55Y44.32G85X68.15Y44.32
G05
X67.55Y35.68G85X68.15Y35.68
G05
T5
X8.2Y50.0G85X8.2Y48.0
G05
X12.2Y44.3G85X10.2Y44.3
G05
X14.2Y50.25G85X14.2Y47.75
G05
M30
