%TF.GenerationSoftware,KiCad,Pcbnew,10.0.6*%
%TF.CreationDate,2026-09-22T13:59:42+02:00*%
%TF.ProjectId,windpcb,77696e64-7063-4622-9e6b-696361645f70,B.3*%
%TF.SameCoordinates,Original*%
%TF.FileFunction,Soldermask,Top*%
%TF.FilePolarity,Negative*%
%FSLAX46Y46*%
G04 Gerber Fmt 4.6, Leading zero omitted, Abs format (unit mm)*
G04 Created by KiCad (PCBNEW 10.0.6) date 2026-09-22 13:59:42*
%MOMM*%
%LPD*%
G01*
G04 APERTURE LIST*
G04 Aperture macros list*
%AMRoundRect*
0 Rectangle with rounded corners*
0 $1 Rounding radius*
0 $2 $3 $4 $5 $6 $7 $8 $9 X,Y pos of 4 corners*
0 Add a 4 corners polygon primitive as box body*
4,1,4,$2,$3,$4,$5,$6,$7,$8,$9,$2,$3,0*
0 Add four circle primitives for the rounded corners*
1,1,$1+$1,$2,$3*
1,1,$1+$1,$4,$5*
1,1,$1+$1,$6,$7*
1,1,$1+$1,$8,$9*
0 Add four rect primitives between the rounded corners*
20,1,$1+$1,$2,$3,$4,$5,0*
20,1,$1+$1,$4,$5,$6,$7,0*
20,1,$1+$1,$6,$7,$8,$9,0*
20,1,$1+$1,$8,$9,$2,$3,0*%
%AMFreePoly0*
4,1,7,0.300000,-0.150000,-0.300000,-0.150000,-0.300000,0.150000,0.050000,0.150000,0.050000,0.500000,0.300000,0.500000,0.300000,-0.150000,0.300000,-0.150000,$1*%
%AMFreePoly1*
4,1,7,0.300000,-0.500000,0.050000,-0.500000,0.050000,-0.150000,-0.300000,-0.150000,-0.300000,0.150000,0.300000,0.150000,0.300000,-0.500000,0.300000,-0.500000,$1*%
%AMFreePoly2*
4,1,7,0.300000,-0.150000,-0.050000,-0.150000,-0.050000,-0.500000,-0.300000,-0.500000,-0.300000,0.150000,0.300000,0.150000,0.300000,-0.150000,0.300000,-0.150000,$1*%
%AMFreePoly3*
4,1,7,-0.050000,0.150000,0.300000,0.150000,0.300000,-0.150000,-0.300000,-0.150000,-0.300000,0.500000,-0.050000,0.500000,-0.050000,0.150000,-0.050000,0.150000,$1*%
G04 Aperture macros list end*
%ADD10R,1.500000X0.900000*%
%ADD11R,2.900000X2.900000*%
%ADD12C,1.448000*%
%ADD13RoundRect,0.200000X0.275000X-0.200000X0.275000X0.200000X-0.275000X0.200000X-0.275000X-0.200000X0*%
%ADD14RoundRect,0.200000X-0.200000X-0.275000X0.200000X-0.275000X0.200000X0.275000X-0.200000X0.275000X0*%
%ADD15RoundRect,0.150000X-0.587500X-0.150000X0.587500X-0.150000X0.587500X0.150000X-0.587500X0.150000X0*%
%ADD16C,1.500000*%
%ADD17RoundRect,0.050000X0.865000X-1.015000X0.865000X1.015000X-0.865000X1.015000X-0.865000X-1.015000X0*%
%ADD18O,1.830000X2.130000*%
%ADD19FreePoly0,0.000000*%
%ADD20RoundRect,0.050000X-0.250000X-0.075000X0.250000X-0.075000X0.250000X0.075000X-0.250000X0.075000X0*%
%ADD21FreePoly1,0.000000*%
%ADD22RoundRect,0.050000X-0.100000X-1.150000X0.100000X-1.150000X0.100000X1.150000X-0.100000X1.150000X0*%
%ADD23FreePoly2,0.000000*%
%ADD24FreePoly3,0.000000*%
%ADD25RoundRect,0.225000X0.250000X-0.225000X0.250000X0.225000X-0.250000X0.225000X-0.250000X-0.225000X0*%
%ADD26RoundRect,0.250000X0.900000X-1.000000X0.900000X1.000000X-0.900000X1.000000X-0.900000X-1.000000X0*%
%ADD27RoundRect,0.250000X0.475000X-0.250000X0.475000X0.250000X-0.475000X0.250000X-0.475000X-0.250000X0*%
%ADD28RoundRect,0.150000X-0.512500X-0.150000X0.512500X-0.150000X0.512500X0.150000X-0.512500X0.150000X0*%
%ADD29RoundRect,0.218750X-0.218750X-0.256250X0.218750X-0.256250X0.218750X0.256250X-0.218750X0.256250X0*%
%ADD30RoundRect,0.200000X0.200000X0.275000X-0.200000X0.275000X-0.200000X-0.275000X0.200000X-0.275000X0*%
%ADD31RoundRect,0.250000X-0.250000X-0.475000X0.250000X-0.475000X0.250000X0.475000X-0.250000X0.475000X0*%
%ADD32RoundRect,0.300000X-0.550000X-0.550000X0.550000X-0.550000X0.550000X0.550000X-0.550000X0.550000X0*%
%ADD33C,1.700000*%
%ADD34RoundRect,0.243750X-0.243750X-0.456250X0.243750X-0.456250X0.243750X0.456250X-0.243750X0.456250X0*%
%ADD35RoundRect,0.225000X-0.225000X-0.375000X0.225000X-0.375000X0.225000X0.375000X-0.225000X0.375000X0*%
%ADD36RoundRect,0.150000X0.575000X-0.150000X0.575000X0.150000X-0.575000X0.150000X-0.575000X-0.150000X0*%
%ADD37RoundRect,0.075000X0.650000X-0.075000X0.650000X0.075000X-0.650000X0.075000X-0.650000X-0.075000X0*%
%ADD38O,2.200000X1.100000*%
%ADD39O,1.700000X1.100000*%
%ADD40RoundRect,0.300000X-0.750000X-0.750000X0.750000X-0.750000X0.750000X0.750000X-0.750000X0.750000X0*%
%ADD41C,2.100000*%
%ADD42RoundRect,0.250000X-0.275000X-0.700000X0.275000X-0.700000X0.275000X0.700000X-0.275000X0.700000X0*%
%ADD43R,1.700000X1.000000*%
%ADD44RoundRect,0.250000X-0.375000X-0.625000X0.375000X-0.625000X0.375000X0.625000X-0.375000X0.625000X0*%
%ADD45RoundRect,0.150000X0.150000X-0.512500X0.150000X0.512500X-0.150000X0.512500X-0.150000X-0.512500X0*%
%ADD46RoundRect,0.225000X-0.225000X-0.250000X0.225000X-0.250000X0.225000X0.250000X-0.225000X0.250000X0*%
%ADD47RoundRect,0.050000X-1.000000X2.250000X-1.000000X-2.250000X1.000000X-2.250000X1.000000X2.250000X0*%
%ADD48O,2.100000X4.600000*%
%ADD49O,4.600000X2.100000*%
G04 APERTURE END LIST*
D10*
%TO.C,U1*%
X34250000Y55000000D03*
X34250000Y53500000D03*
X34250000Y52000000D03*
X34250000Y50500000D03*
X34250000Y49000000D03*
X34250000Y47500000D03*
X34250000Y46000000D03*
X34250000Y44500000D03*
X34250000Y43000000D03*
X51750000Y43000000D03*
X51750000Y44500000D03*
X51750000Y46000000D03*
X51750000Y47500000D03*
X51750000Y49000000D03*
X51750000Y50500000D03*
X51750000Y52000000D03*
X51750000Y53500000D03*
X51750000Y55000000D03*
D11*
X43960000Y48800000D03*
%TD*%
D12*
%TO.C,H6*%
X60000000Y3500000D03*
%TD*%
D13*
%TO.C,R5*%
X30000000Y45675000D03*
X30000000Y47325000D03*
%TD*%
D14*
%TO.C,R25*%
X23175000Y20500000D03*
X24825000Y20500000D03*
%TD*%
%TO.C,R2*%
X59175000Y35500000D03*
X60825000Y35500000D03*
%TD*%
D15*
%TO.C,Q6*%
X17062500Y17150000D03*
X17062500Y15250000D03*
X18937500Y16200000D03*
%TD*%
D16*
%TO.C,TP5*%
X46500000Y29500000D03*
%TD*%
D14*
%TO.C,R14*%
X25675000Y39000000D03*
X27325000Y39000000D03*
%TD*%
D17*
%TO.C,J5*%
X36000000Y11000000D03*
D18*
X38540000Y11000000D03*
X41080000Y11000000D03*
X43620000Y11000000D03*
%TD*%
D14*
%TO.C,R20*%
X8175000Y20500000D03*
X9825000Y20500000D03*
%TD*%
D19*
%TO.C,U4*%
X24100000Y35700000D03*
D20*
X24100000Y35225000D03*
X24100000Y34775000D03*
D21*
X24100000Y34300000D03*
D22*
X24750000Y35000000D03*
X25250000Y35000000D03*
D23*
X25900000Y34300000D03*
D20*
X25900000Y34775000D03*
X25900000Y35225000D03*
D24*
X25900000Y35700000D03*
%TD*%
D13*
%TO.C,R17*%
X32000000Y29175000D03*
X32000000Y30825000D03*
%TD*%
D15*
%TO.C,Q7*%
X32062500Y17150000D03*
X32062500Y15250000D03*
X33937500Y16200000D03*
%TD*%
D16*
%TO.C,TP3*%
X65000000Y23000000D03*
%TD*%
D15*
%TO.C,Q5*%
X57062500Y19450000D03*
X57062500Y17550000D03*
X58937500Y18500000D03*
%TD*%
%TO.C,Q4*%
X42062500Y19450000D03*
X42062500Y17550000D03*
X43937500Y18500000D03*
%TD*%
D14*
%TO.C,R30*%
X38175000Y20500000D03*
X39825000Y20500000D03*
%TD*%
D13*
%TO.C,R36*%
X53500000Y16175000D03*
X53500000Y17825000D03*
%TD*%
D25*
%TO.C,C8*%
X29000000Y30225000D03*
X29000000Y31775000D03*
%TD*%
D26*
%TO.C,D2*%
X15000000Y33850000D03*
X15000000Y38150000D03*
%TD*%
D27*
%TO.C,C3*%
X30000000Y52750000D03*
X30000000Y54650000D03*
%TD*%
D13*
%TO.C,R32*%
X48000000Y18775000D03*
X48000000Y20425000D03*
%TD*%
D14*
%TO.C,R35*%
X53175000Y20500000D03*
X54825000Y20500000D03*
%TD*%
D28*
%TO.C,U3*%
X57862500Y41950000D03*
X57862500Y41000000D03*
X57862500Y40050000D03*
X60137500Y40050000D03*
X60137500Y41000000D03*
X60137500Y41950000D03*
%TD*%
D14*
%TO.C,R15*%
X20175000Y39000000D03*
X21825000Y39000000D03*
%TD*%
D16*
%TO.C,TP2*%
X65000000Y26500000D03*
%TD*%
D13*
%TO.C,R37*%
X63000000Y18775000D03*
X63000000Y20425000D03*
%TD*%
D29*
%TO.C,D4*%
X35212500Y30000000D03*
X36787500Y30000000D03*
%TD*%
D13*
%TO.C,R31*%
X38500000Y16175000D03*
X38500000Y17825000D03*
%TD*%
%TO.C,R22*%
X18000000Y18775000D03*
X18000000Y20425000D03*
%TD*%
D15*
%TO.C,Q3*%
X27062500Y19450000D03*
X27062500Y17550000D03*
X28937500Y18500000D03*
%TD*%
D30*
%TO.C,R4*%
X55825000Y41500000D03*
X54175000Y41500000D03*
%TD*%
D13*
%TO.C,R26*%
X23500000Y16175000D03*
X23500000Y17825000D03*
%TD*%
D14*
%TO.C,R7*%
X29175000Y39500000D03*
X30825000Y39500000D03*
%TD*%
%TO.C,R1*%
X59175000Y46000000D03*
X60825000Y46000000D03*
%TD*%
D15*
%TO.C,Q9*%
X62062500Y17150000D03*
X62062500Y15250000D03*
X63937500Y16200000D03*
%TD*%
D17*
%TO.C,J3*%
X6000000Y11000000D03*
D18*
X8540000Y11000000D03*
X11080000Y11000000D03*
X13620000Y11000000D03*
%TD*%
D31*
%TO.C,C7*%
X24550000Y42500000D03*
X26450000Y42500000D03*
%TD*%
D13*
%TO.C,R27*%
X33000000Y18775000D03*
X33000000Y20425000D03*
%TD*%
D16*
%TO.C,TP6*%
X32000000Y26500000D03*
%TD*%
D32*
%TO.C,C6*%
X7000000Y38000000D03*
D33*
X9500000Y38000000D03*
%TD*%
D14*
%TO.C,R9*%
X55175000Y35000000D03*
X56825000Y35000000D03*
%TD*%
D31*
%TO.C,C10*%
X25550000Y27500000D03*
X27450000Y27500000D03*
%TD*%
D14*
%TO.C,R19*%
X59175000Y59000000D03*
X60825000Y59000000D03*
%TD*%
D34*
%TO.C,D3*%
X59062500Y32000000D03*
X60937500Y32000000D03*
%TD*%
D35*
%TO.C,D1*%
X19350000Y42000000D03*
X22650000Y42000000D03*
%TD*%
D13*
%TO.C,R16*%
X30000000Y24675000D03*
X30000000Y26325000D03*
%TD*%
%TO.C,R6*%
X33000000Y36175000D03*
X33000000Y37825000D03*
%TD*%
D36*
%TO.C,J2*%
X62755000Y36750000D03*
X62755000Y37550000D03*
D37*
X62755000Y38750000D03*
X62755000Y39750000D03*
X62755000Y40250000D03*
X62755000Y41250000D03*
D36*
X62755000Y42450000D03*
X62755000Y43250000D03*
X62755000Y43250000D03*
X62755000Y42450000D03*
D37*
X62755000Y41750000D03*
X62755000Y40750000D03*
X62755000Y39250000D03*
X62755000Y38250000D03*
D36*
X62755000Y37550000D03*
X62755000Y36750000D03*
D38*
X63670000Y35680000D03*
D39*
X67850000Y35680000D03*
D38*
X63670000Y44320000D03*
D39*
X67850000Y44320000D03*
%TD*%
D12*
%TO.C,H5*%
X10000000Y60500000D03*
%TD*%
D40*
%TO.C,C9*%
X6000000Y28000000D03*
D41*
X11000000Y28000000D03*
%TD*%
D25*
%TO.C,C2*%
X54000000Y51225000D03*
X54000000Y52775000D03*
%TD*%
D42*
%TO.C,FB1*%
X18925000Y35000000D03*
X22075000Y35000000D03*
%TD*%
D25*
%TO.C,C4*%
X30000000Y49225000D03*
X30000000Y50775000D03*
%TD*%
D43*
%TO.C,SW2*%
X43850000Y36900000D03*
X50150000Y36900000D03*
X43850000Y33100000D03*
X50150000Y33100000D03*
%TD*%
D15*
%TO.C,Q8*%
X47062500Y17150000D03*
X47062500Y15250000D03*
X48937500Y16200000D03*
%TD*%
D25*
%TO.C,C1*%
X62000000Y51225000D03*
X62000000Y52775000D03*
%TD*%
D44*
%TO.C,F1*%
X16600000Y52000000D03*
X19400000Y52000000D03*
%TD*%
D16*
%TO.C,TP4*%
X20000000Y23700000D03*
%TD*%
D30*
%TO.C,R3*%
X55825000Y45000000D03*
X54175000Y45000000D03*
%TD*%
D14*
%TO.C,R8*%
X59175000Y55500000D03*
X60825000Y55500000D03*
%TD*%
D15*
%TO.C,Q2*%
X12062500Y19450000D03*
X12062500Y17550000D03*
X13937500Y18500000D03*
%TD*%
D45*
%TO.C,U2*%
X57050000Y50862500D03*
X58000000Y50862500D03*
X58950000Y50862500D03*
X58950000Y53137500D03*
X57050000Y53137500D03*
%TD*%
D13*
%TO.C,R11*%
X21000000Y30175000D03*
X21000000Y31825000D03*
%TD*%
D15*
%TO.C,Q1*%
X20062500Y46950000D03*
X20062500Y45050000D03*
X21937500Y46000000D03*
%TD*%
D14*
%TO.C,R40*%
X30675000Y32700000D03*
X32325000Y32700000D03*
%TD*%
D13*
%TO.C,R12*%
X24000000Y29175000D03*
X24000000Y30825000D03*
%TD*%
D46*
%TO.C,C11*%
X18225000Y28500000D03*
X19775000Y28500000D03*
%TD*%
D13*
%TO.C,R13*%
X30000000Y34175000D03*
X30000000Y35825000D03*
%TD*%
D25*
%TO.C,C5*%
X30000000Y42225000D03*
X30000000Y43775000D03*
%TD*%
D14*
%TO.C,R10*%
X15175000Y43000000D03*
X16825000Y43000000D03*
%TD*%
D13*
%TO.C,R21*%
X8500000Y16175000D03*
X8500000Y17825000D03*
%TD*%
D47*
%TO.C,J1*%
X14200000Y49000000D03*
D48*
X8200000Y49000000D03*
D49*
X11200000Y44300000D03*
%TD*%
D17*
%TO.C,J4*%
X21000000Y11000000D03*
D18*
X23540000Y11000000D03*
X26080000Y11000000D03*
X28620000Y11000000D03*
%TD*%
D17*
%TO.C,J6*%
X51000000Y11000000D03*
D18*
X53540000Y11000000D03*
X56080000Y11000000D03*
X58620000Y11000000D03*
%TD*%
D14*
%TO.C,R18*%
X35175000Y27000000D03*
X36825000Y27000000D03*
%TD*%
D43*
%TO.C,SW1*%
X34850000Y36900000D03*
X41150000Y36900000D03*
X34850000Y33100000D03*
X41150000Y33100000D03*
%TD*%
D16*
%TO.C,TP1*%
X65000000Y30000000D03*
%TD*%
M02*
